<?xml version="1.0" encoding="UTF-8" standalone="no"?><!DOCTYPE svg PUBLIC "-//W3C//DTD SVG 1.1//EN" "http://www.w3.org/Graphics/SVG/1.1/DTD/svg11.dtd"><svg width="100%" height="100%" viewBox="0 0 350 350" version="1.1" xmlns="http://www.w3.org/2000/svg" xmlns:xlink="http://www.w3.org/1999/xlink" xml:space="preserve" xmlns:serif="http://www.serif.com/" style="fill-rule:evenodd;clip-rule:evenodd;stroke-linejoin:round;stroke-miterlimit:2;"><g id="Grouped-Logo" serif:id="Grouped Logo"><g id="Text" transform="matrix(1,0,0,1,-224.602,-143.483)"><g transform="matrix(0.357046,-0.934087,0.934087,0.357046,-95.1125,461.943)"><text x="288px" y="300.061px" style="font-family:'Eckmannpsych-Small', 'Eckmannpsych', sans-serif;font-weight:300;font-size:75px;fill:#5a5c35;stroke:#5a5c35;stroke-width:1px;">C</text></g><g transform="matrix(0.692215,-0.721691,0.721691,0.692215,-92.8927,298.77)"><text x="303.831px" y="258.292px" style="font-family:'Eckmannpsych-Small', 'Eckmannpsych', sans-serif;font-weight:300;font-size:75px;fill:#5a5c35;stroke:#5a5c35;stroke-width:1px;">L</text></g><g transform="matrix(0.924157,-0.382014,0.382014,0.924157,-60.6104,145.118)"><text x="335.166px" y="225.203px" style="font-family:'Eckmannpsych-Small', 'Eckmannpsych', sans-serif;font-weight:300;font-size:75px;fill:#5a5c35;stroke:#5a5c35;stroke-width:1px;">U</text></g><g transform="matrix(0.999989,0.00475693,-0.00475693,0.999989,0.991736,-1.80119)"><text x="379.139px" y="207.58px" style="font-family:'Eckmannpsych-Small', 'Eckmannpsych', sans-serif;font-weight:300;font-size:75px;fill:#5a5c35;stroke:#5a5c35;stroke-width:1px;">S</text></g><g transform="matrix(0.9215,0.388378,-0.388378,0.9215,113.845,-147.692)"><text x="422.275px" y="207.778px" style="font-family:'Eckmannpsych-Small', 'Eckmannpsych', sans-serif;font-weight:300;font-size:75px;fill:#5a5c35;stroke:#5a5c35;stroke-width:1px;">T</text></g><g transform="matrix(0.709209,0.704998,-0.704998,0.709209,292.912,-260.664)"><text x="462.436px" y="224.738px" style="font-family:'Eckmannpsych-Small', 'Eckmannpsych', sans-serif;font-weight:300;font-size:75px;fill:#5a5c35;stroke:#5a5c35;stroke-width:1px;">E</text></g><g transform="matrix(0.368503,0.929627,-0.929627,0.368503,548.404,-297.964)"><text x="493.518px" y="254.671px" style="font-family:'Eckmannpsych-Small', 'Eckmannpsych', sans-serif;font-weight:300;font-size:75px;fill:#5a5c35;stroke:#5a5c35;stroke-width:1px;">R</text></g><g transform="matrix(0.328094,0.944645,-0.944645,0.328094,495.764,16.7908)"><text x="236.079px" y="356.897px" style="font-family:'Eckmannpsych-Small', 'Eckmannpsych', sans-serif;font-weight:300;font-size:75px;fill:#5a5c35;stroke:#5a5c35;stroke-width:1px;">*</text></g><g transform="matrix(0.820469,0.571691,-0.571691,0.820469,298.332,-79.1717)"><text x="275.222px" y="435.413px" style="font-family:'Eckmannpsych-Small', 'Eckmannpsych', sans-serif;font-weight:300;font-size:75px;fill:#5a5c35;stroke:#5a5c35;stroke-width:1px;">M</text></g><g transform="matrix(0.996989,0.0775478,-0.0775478,0.996989,38.5607,-26.6651)"><text x="362.616px" y="483.169px" style="font-family:'Eckmannpsych-Small', 'Eckmannpsych', sans-serif;font-weight:300;font-size:75px;fill:#5a5c35;stroke:#5a5c35;stroke-width:1px;">U</text></g><g transform="matrix(0.950085,-0.31199,0.31199,0.950085,-129.383,158.85)"><text x="431.755px" y="483.778px" style="font-family:'Eckmannpsych-Small', 'Eckmannpsych', sans-serif;font-weight:300;font-size:75px;fill:#5a5c35;stroke:#5a5c35;stroke-width:1px;">S</text></g><g transform="matrix(0.752874,-0.658165,0.658165,0.752874,-180.638,437.523)"><text x="492.302px" y="459.306px" style="font-family:'Eckmannpsych-Small', 'Eckmannpsych', sans-serif;font-weight:300;font-size:75px;fill:#5a5c35;stroke:#5a5c35;stroke-width:1px;">H</text></g><g transform="matrix(0.328094,-0.944645,0.944645,0.328094,2.667,783.008)"><text x="551.757px" y="389.629px" style="font-family:'Eckmannpsych-Small', 'Eckmannpsych', sans-serif;font-weight:300;font-size:75px;fill:#5a5c35;stroke:#5a5c35;stroke-width:1px;">*</text></g></g><g id="Mushroom-Group" serif:id="Mushroom Group"><path d="M150.167,85.661c-1.48,1.042 -2.19,2.869 -1.802,4.637c0.387,1.768 1.797,3.131 3.577,3.458c16.175,2.977 48.063,8.844 63.963,11.77c1.756,0.323 3.536,-0.423 4.537,-1.902c1,-1.479 1.031,-3.409 0.077,-4.919c-6.017,-9.493 -17.177,-23.808 -30.998,-26.351c-13.767,-2.533 -29.882,6.666 -39.354,13.307Z" style="fill:#5a5c35;"/><path d="M85.504,138.976c-0.652,1.717 -0.265,3.656 0.997,4.99c1.262,1.335 3.176,1.829 4.927,1.273c12.322,-3.916 34.919,-11.097 51.393,-16.333c3.612,-1.147 6.134,-4.413 6.332,-8.197c0.198,-3.785 -1.97,-7.295 -5.443,-8.813c-10.111,-4.443 -22.41,-7.962 -32.185,-4.856c-13.535,4.302 -21.94,21.214 -26.021,31.936Z" style="fill:#5a5c35;"/><path d="M195.018,127.322c-1.738,0.644 -2.947,2.233 -3.104,4.08c-0.157,1.846 0.766,3.617 2.37,4.545c14.163,8.194 42.537,24.608 55.963,32.376c1.525,0.882 3.413,0.855 4.912,-0.072c1.499,-0.927 2.367,-2.602 2.259,-4.362c-0.751,-11.9 -3.895,-32.617 -16.49,-39.904c-12.425,-7.187 -33.771,-1.146 -45.91,3.337Z" style="fill:#5a5c35;"/><path d="M235.462,182.269c-2.059,-0.384 -4.157,0.438 -5.406,2.118c-1.25,1.681 -1.434,3.926 -0.474,5.788c6.334,12.276 17.285,33.5 23.349,45.253c0.919,1.782 2.736,2.92 4.74,2.968c2.004,0.049 3.875,-0.999 4.88,-2.734c5.527,-9.571 12.722,-25.415 7.305,-35.914c-5.339,-10.347 -22.813,-15.288 -34.394,-17.479Z" style="fill:#5a5c35;"/><path d="M68.112,207.44c-0.636,2.167 -0.006,4.508 1.633,6.063c1.639,1.554 4.01,2.06 6.141,1.31c10.415,-3.66 26.47,-9.315 37.33,-13.14c2.23,-0.785 3.795,-2.802 4.002,-5.157c0.207,-2.355 -0.982,-4.614 -3.041,-5.776c-8.655,-4.828 -20.791,-9.956 -29.467,-6.9c-8.848,3.117 -13.927,14.685 -16.598,23.6Z" style="fill:#5a5c35;"/><path d="M181.752,91.035c0.436,-0.862 1.489,-1.208 2.351,-0.772c0.862,0.436 1.208,1.489 0.773,2.351c-0,0 -2.469,4.889 -5.589,13.981c-1.386,4.038 -2.894,8.901 -4.377,14.526c-4.484,17.308 -8.775,41.818 -8.053,71.775c0.513,21.277 3.627,45.278 10.726,71.384c0.447,1.737 -0.6,3.51 -2.337,3.958c-1.737,0.447 -3.511,-0.6 -3.958,-2.337c-6.508,-26.763 -8.873,-51.274 -8.963,-72.94c-0.128,-30.425 4.337,-55.25 9.116,-72.763c1.533,-5.713 3.094,-10.65 4.515,-14.752c3.246,-9.37 5.796,-14.411 5.796,-14.411Z" style="fill:#5a5c35;"/><path d="M220.109,149.776c0.644,-0.81 1.825,-0.944 2.635,-0.3c0.809,0.644 0.944,1.825 0.299,2.635c-5.87,7.407 -9.836,14.224 -12.509,20.748c-12.448,30.378 0.929,53.78 -28.108,94.781c-1.014,1.395 -2.97,1.705 -4.365,0.691c-1.395,-1.013 -1.705,-2.969 -0.691,-4.365c8.957,-11.896 14.084,-22.275 17.113,-31.845c9.346,-29.521 0.347,-51.031 25.626,-82.345Z" style="fill:#5a5c35;"/><path d="M116.618,133.176c-0.44,-0.937 -0.036,-2.054 0.901,-2.494c0.937,-0.439 2.054,-0.036 2.494,0.901c28.121,59.015 11.63,78.741 20.604,100.804c3.655,8.986 11.826,18.219 29.28,30.915c1.38,1.035 1.661,2.995 0.626,4.375c-1.034,1.38 -2.994,1.661 -4.374,0.627c-18.261,-14.099 -26.447,-24.407 -30.159,-34.089c-8.526,-22.238 8.05,-41.702 -19.372,-101.039Z" style="fill:#5a5c35;"/><path d="M89.477,206.853c-0.986,-1.741 -0.372,-3.955 1.37,-4.94c1.741,-0.986 3.955,-0.372 4.94,1.369c0,0 12.792,22.6 32.686,40.463c12.88,11.564 28.752,21.245 46.139,20.859c11.518,-0.382 18.348,-2.444 22.763,-5.891c4.308,-3.364 6.191,-7.97 8.197,-13.015c4.77,-11.995 9.6,-26.407 36.511,-37.029c1.861,-0.734 3.968,0.18 4.703,2.042c0.734,1.861 -0.18,3.968 -2.041,4.703c-23.933,9.445 -28.193,22.296 -32.436,32.963c-2.5,6.286 -5.104,11.859 -10.472,16.051c-5.259,4.106 -13.287,6.972 -27.017,7.423c-0.013,0.001 -0.025,0.001 -0.037,0.002c-19.212,0.434 -36.914,-9.928 -51.154,-22.713c-20.79,-18.666 -34.152,-42.287 -34.152,-42.287Z" style="fill:#5a5c35;"/></g></g></svg>