<?xml version="1.0" encoding="UTF-8" standalone="no"?><!DOCTYPE svg PUBLIC "-//W3C//DTD SVG 1.1//EN" "http://www.w3.org/Graphics/SVG/1.1/DTD/svg11.dtd"><svg width="100%" height="100%" viewBox="0 0 84 84" version="1.1" xmlns="http://www.w3.org/2000/svg" xmlns:xlink="http://www.w3.org/1999/xlink" xml:space="preserve" xmlns:serif="http://www.serif.com/" style="fill-rule:evenodd;clip-rule:evenodd;stroke-linejoin:round;stroke-miterlimit:2;"><g id="Expanded--USE-THIS-" serif:id="Expanded (USE THIS)"><g id="Text"><path d="M8.361,35.318c-2.025,-0.66 -2.284,-1.375 -2.055,-2.12c0.273,-0.89 0.888,-1.278 1.149,-2.132c0.228,-0.745 0.217,-1.225 0.344,-1.643c0.134,-0.436 0.515,-0.578 1.024,-0.422c0.492,0.151 1.185,0.681 0.895,1.626c-0.183,0.598 -0.51,0.954 -0.666,1.463c-0.189,0.617 0.197,1.172 1.213,1.483c0.962,0.295 1.506,-0.055 1.762,-0.89c0.456,-1.489 -0.278,-2.787 -2.445,-4.404c-1.404,-1.065 -1.957,-2.049 -2.755,-2.293c-0.381,-0.117 -0.54,0.013 -0.635,0.322c-0.122,0.399 0.161,0.903 -0.273,2.32c-0.217,0.708 -0.908,1.668 -1.097,2.285c-0.863,2.818 1.193,5.313 5.298,6.57c3.49,1.069 5.658,-0.113 6.549,-3.021c0.8,-2.615 0.158,-5.056 -3.422,-6.153c-0.635,-0.194 -0.988,-0.144 -1.077,0.147c-0.078,0.254 -0.019,0.451 0.64,0.891c1.321,0.882 1.946,2.026 1.434,3.697c-0.746,2.436 -2.941,3.174 -5.883,2.274Z" style="fill:#5a5c35;fill-rule:nonzero;stroke:#5a5c35;stroke-width:0.24px;"/><path d="M10.713,18.968c-0.625,0.713 -0.621,1.602 0.067,2.23c1.786,1.592 3.939,1.584 5.34,2.812c1.586,1.391 1.495,3.485 2.094,4.01c0.314,0.275 0.617,0.188 0.855,-0.084c0.627,-0.714 1.872,-2.451 2.799,-3.509c1.253,-1.428 2.844,-2.811 3.207,-3.225c0.338,-0.386 0.181,-0.725 -0.219,-1.076c-1.799,-1.577 -4.945,0.541 -6.103,-0.474c-0.357,-0.314 -0.33,-0.719 0.021,-1.119c0.627,-0.715 1.073,-0.475 1.399,-0.846c0.225,-0.257 0.12,-0.829 -0.608,-1.468c-0.785,-0.688 -1.737,-0.841 -2.601,0.144c-1.027,1.172 -0.972,2.405 0.155,3.394c0.843,0.74 2.804,1.271 3.547,1.923c0.715,0.626 1.096,1.517 0.282,2.446c-0.903,1.029 -1.978,1.275 -2.864,0.498c-1.215,-1.065 -0.909,-2.365 -2.386,-3.735c-0.385,-0.338 -0.921,-0.707 -1.306,-1.045c-1.178,-1.134 0.432,-3.287 -0.254,-3.889c-0.314,-0.275 -0.607,-0.229 -0.858,0.057c-0.288,0.329 -0.683,0.894 -1.096,1.365c-0.514,0.586 -1.098,1.137 -1.471,1.591Z" style="fill:#5a5c35;fill-rule:nonzero;stroke:#5a5c35;stroke-width:0.24px;"/><path d="M23.216,7.902c-1.354,0.595 -1.808,1.168 -1.54,1.777c0.221,0.504 1.976,0.625 3.291,3.616c0.757,1.722 -0.128,3.439 0.469,4.795c0.565,1.287 2.324,1.323 3.523,0.796c1.636,-0.719 2.097,-1.606 1.898,-2.908c-0.103,-0.66 -0.064,-1.279 0.563,-1.554c0.435,-0.191 0.671,0.016 0.816,0.346c0.183,0.416 0.21,0.902 0.378,1.285c0.314,0.713 0.855,0.765 2.072,0.23c1.182,-0.519 1.401,-1.155 1.187,-1.642c-0.497,-1.129 -3.549,-1.509 -4.742,-4.223c-0.948,-2.156 1.023,-4.849 0.671,-5.649c-0.122,-0.279 -0.37,-0.418 -0.683,-0.281c-0.661,0.291 -1.621,0.751 -2.108,0.966c-0.694,0.305 -1.648,0.685 -1.961,0.823c-0.4,0.176 -0.492,0.486 -0.354,0.799c0.29,0.661 2.385,0.985 3.295,3.055c1.062,2.418 0.584,4.683 -1.417,5.563c-1.131,0.497 -1.886,0.102 -2.246,-0.715c-0.864,-1.967 0.46,-5.142 -0.144,-6.516c-0.451,-1.026 -1.436,-1.236 -2.968,-0.563Z" style="fill:#5a5c35;fill-rule:nonzero;stroke:#5a5c35;stroke-width:0.24px;"/><path d="M41.731,3.152c-2.508,-0.012 -4.147,1.27 -4.156,3.303c-0.012,2.49 2.186,3.241 5.414,3.846c2.051,0.409 2.829,0.811 2.824,1.762c-0.004,0.931 -0.805,1.307 -2.344,1.3c-2.452,-0.012 -3.265,-1.023 -3.449,-2.202c-0.074,-0.419 -0.206,-0.647 -0.661,-0.649c-1.139,-0.006 -1.941,0.903 -1.946,2.024c-0.007,1.367 0.954,2.947 4.867,2.966c3.098,0.015 4.472,-1.554 4.481,-3.568c0.02,-4.124 -6.478,-4.098 -6.466,-6.739c0.004,-0.818 0.538,-1.214 1.185,-1.211c2.281,0.011 2.416,3.546 3.803,3.553c0.76,0.003 1.62,-1.455 1.625,-2.385c0.001,-0.38 -0.112,-0.608 -0.51,-0.61c-1.176,-0.008 -2.12,-1.378 -4.667,-1.39Z" style="fill:#5a5c35;fill-rule:nonzero;stroke:#5a5c35;stroke-width:0.24px;"/><path d="M57.811,9.049c0.954,0.426 0.524,2.087 1.305,2.436c0.694,0.31 2.439,-1.033 2.934,-2.142c0.202,-0.451 0.104,-0.744 -0.313,-0.93c-0.312,-0.14 -2.534,-0.989 -3.973,-1.633c-1.717,-0.767 -3.033,-1.498 -3.952,-1.909c-0.538,-0.24 -0.723,-0.011 -0.878,0.335c-0.116,0.26 -0.252,0.843 -0.438,1.26c-0.163,0.364 -0.48,0.888 -0.558,1.062c-0.139,0.312 -0.036,0.546 0.294,0.693c0.797,0.356 2.187,-1.312 3.401,-0.77c0.433,0.194 0.558,0.52 0.364,0.954c-0.737,1.648 -4.964,2.173 -6.104,4.724c-0.931,2.082 0.204,3.544 2.927,4.761c2.098,0.938 4.694,0.997 5.578,-0.981c0.209,-0.468 0.079,-0.922 -0.226,-1.87c-0.325,-1.041 -0.174,-1.472 -0.625,-1.674c-0.208,-0.093 -0.561,-0.001 -0.877,0.566c-1.633,2.954 -2.18,3.667 -3.256,3.187c-0.954,-0.427 -0.826,-1.598 -0.213,-2.969c1.481,-3.314 3.535,-5.581 4.61,-5.1Z" style="fill:#5a5c35;fill-rule:nonzero;stroke:#5a5c35;stroke-width:0.24px;"/><path d="M61.936,24.649c1.456,1.578 3.665,2.125 5.131,0.772c0.531,-0.49 0.641,-0.876 0.397,-1.141c-0.554,-0.6 -2.343,0.042 -4.082,-1.843c-1.431,-1.55 -1.323,-3.537 -0.331,-4.452c0.489,-0.451 1.082,-0.481 1.48,-0.022c1.352,1.468 0.632,3.347 1.727,4.534c0.747,0.81 1.6,0.334 2.758,-0.735c0.279,-0.258 0.273,-0.433 0.105,-0.614c-0.257,-0.28 -1.251,-0.319 -2.282,-1.436c-1.095,-1.187 -2.045,-3.31 -0.885,-4.38c0.573,-0.529 1.188,-0.423 1.535,-0.046c1.198,1.299 1.105,3.634 2.29,4.919c0.954,1.033 1.847,0.881 2.782,0.019c0.613,-0.567 1.045,-1.275 0.672,-1.68c-0.245,-0.266 -0.815,-0.128 -1.472,-0.84c-0.619,-0.67 -1.253,-1.946 -1.807,-2.546c-1.701,-1.843 -3.776,-1.994 -7.184,1.151c-3.115,2.873 -3.308,5.659 -0.834,8.34Z" style="fill:#5a5c35;fill-rule:nonzero;stroke:#5a5c35;stroke-width:0.24px;"/><path d="M77.458,25.776c-0.11,-0.344 -0.336,-0.491 -0.716,-0.369c-0.632,0.202 -1.522,1.905 -5.032,3.03c-2.461,0.789 -4.855,-0.578 -5.651,-0.323c-0.325,0.105 -0.484,0.355 -0.403,0.609c0.18,0.561 0.582,1.628 0.86,2.495c0.249,0.778 0.467,1.767 0.53,1.966c0.122,0.38 0.308,0.46 0.615,0.362c1.14,-0.366 1.407,-3.266 4.32,-4.201c2.768,-0.887 5.124,-0.385 5.658,1.28c0.296,0.924 0.042,1.624 -1.387,2.082c-1.285,0.412 -2.767,0.209 -3.75,-1.552c-0.183,-0.319 -0.392,-0.412 -0.681,-0.319c-0.272,0.087 -0.437,0.379 -0.34,0.747c0.376,1.295 -0.022,1.921 -1.066,2.275c-1.87,0.64 -2.65,1.691 -1.856,4.167c0.331,1.031 0.639,1.431 1.037,1.304c0.271,-0.087 0.429,-0.278 0.586,-0.847c0.156,-0.449 0.563,-0.858 1.137,-1.182c1.301,-0.736 1.526,-1.466 1.177,-2.989c-0.097,-0.488 -0.074,-0.917 0.287,-1.033c1.195,-0.381 2.511,3.226 5.098,2.396c1.357,-0.435 2.076,-1.982 1.485,-3.826c-0.279,-0.868 -0.635,-1.792 -0.954,-2.788c-0.401,-1.249 -0.809,-2.832 -0.954,-3.284Z" style="fill:#5a5c35;fill-rule:nonzero;stroke:#5a5c35;stroke-width:0.24px;"/><path d="M10.283,50.257c0.075,0.276 -0.091,0.459 -0.366,0.534c-1.008,0.275 -2.029,0.868 -2.29,1.135c-0.289,0.315 -0.261,0.563 -0.146,0.984c0.275,1.008 0.876,1.77 1.445,1.615c0.88,-0.24 0.483,-2.2 1.455,-2.465c0.348,-0.094 0.516,0.017 0.611,0.366c0.21,0.769 0.02,1.589 0.1,1.883c0.09,0.33 0.432,0.355 1.291,0.12c0.696,-0.189 1.03,-0.339 0.93,-0.706c-0.205,-0.752 -1.548,-0.838 -1.783,-1.7c-0.11,-0.403 0.078,-0.652 0.463,-0.757c0.917,-0.249 1.63,-0.306 2.18,-0.456c0.477,-0.13 0.39,-0.736 0.116,-1.742c-0.21,-0.771 -0.458,-1.175 -0.88,-1.06c-0.568,0.155 -0.988,1.431 -1.941,1.691c-0.349,0.095 -0.609,0.007 -0.714,-0.378c-0.279,-1.026 0.826,-1.957 0.606,-2.763c-0.13,-0.477 -0.543,-0.404 -1.185,-0.229c-0.932,0.254 -1.141,0.429 -1.031,0.832c0.08,0.294 0.553,0.874 0.758,1.626c0.095,0.348 -0.003,0.493 -0.297,0.573c-0.953,0.26 -2.107,-2.025 -2.841,-1.825c-0.33,0.089 -0.486,0.959 -0.222,1.931c0.075,0.275 0.189,0.401 0.555,0.518c0.39,0.13 1.531,0.27 2.503,0.005c0.311,-0.085 0.598,-0.045 0.683,0.268Z" style="fill:#5a5c35;fill-rule:nonzero;stroke:#5a5c35;stroke-width:0.24px;"/><path d="M20.951,63.519c-0.791,-0.593 -0.96,-2.237 -2.009,-3.021c-0.426,-0.319 -0.851,-0.353 -1.124,0.012c-0.944,1.262 -0.569,3.393 -1.65,4.838c-1.332,1.78 -4.408,3.133 -4.966,3.879c-0.227,0.304 -0.212,0.6 0.062,0.805c0.305,0.228 0.962,0.649 1.479,1.035c0.516,0.386 1.129,0.964 1.281,1.077c0.274,0.205 0.544,0.194 0.76,-0.095c1.024,-1.368 0.753,-4.085 2.302,-6.155c0.967,-1.294 2.384,-2.109 3.176,-1.517c1.187,0.888 0.306,4.288 -0.605,5.506c-1.263,1.689 -2.886,1.826 -3.648,2.845c-0.364,0.487 -0.245,0.741 1.108,1.753c1.992,1.491 2.338,1.536 2.691,1.065c0.671,-0.897 -0.894,-2.992 0.563,-4.94c1.673,-2.237 3.999,-3.061 5.187,-2.173c1.003,0.751 1.018,1.522 0.229,2.546c-1.408,1.914 -3.329,2.233 -4.524,3.83c-0.841,1.125 -0.556,2.358 0.752,3.337c1.522,1.138 2.991,0.601 3.992,-0.737c0.535,-0.715 0.519,-1.201 0.306,-1.361c-0.365,-0.273 -1.098,0.199 -1.935,-0.427c-0.472,-0.352 -1.008,-0.967 -0.53,-1.607c0.911,-1.217 3.747,-0.473 5.64,-2.972c0.804,-1.106 0.524,-2.287 -0.434,-3.004c-1.702,-1.273 -3.871,-0.309 -4.678,-0.913c-0.381,-0.285 -0.328,-0.482 -0.089,-0.897c0.383,-0.64 0.526,-1.338 -0.233,-1.906c-0.822,-0.615 -2.174,-0.108 -3.103,-0.803Z" style="fill:#5a5c35;fill-rule:nonzero;stroke:#5a5c35;stroke-width:0.24px;"/><path d="M36.131,70.279c-1.475,-0.121 -2.147,0.166 -2.201,0.829c-0.046,0.549 1.44,1.491 1.171,4.747c-0.155,1.875 -1.751,2.963 -1.873,4.44c-0.115,1.401 1.414,2.27 2.719,2.378c1.781,0.147 2.609,-0.413 3.054,-1.653c0.224,-0.629 0.554,-1.154 1.235,-1.098c0.474,0.039 0.583,0.334 0.553,0.693c-0.037,0.453 -0.245,0.893 -0.279,1.31c-0.064,0.776 0.387,1.08 1.712,1.19c1.286,0.106 1.781,-0.349 1.825,-0.879c0.101,-1.229 -2.401,-3.018 -2.157,-5.971c0.194,-2.349 3.209,-3.777 3.281,-4.648c0.025,-0.303 -0.126,-0.545 -0.467,-0.573c-0.72,-0.059 -1.783,-0.111 -2.313,-0.155c-0.756,-0.062 -1.775,-0.182 -2.116,-0.21c-0.436,-0.036 -0.665,0.193 -0.693,0.534c-0.059,0.719 1.628,2.002 1.442,4.256c-0.218,2.632 -1.717,4.395 -3.896,4.215c-1.231,-0.101 -1.707,-0.808 -1.633,-1.698c0.176,-2.141 2.853,-4.302 2.977,-5.798c0.092,-1.117 -0.674,-1.771 -2.341,-1.909Z" style="fill:#5a5c35;fill-rule:nonzero;stroke:#5a5c35;stroke-width:0.24px;"/><path d="M50.962,69.157c-2.368,0.825 -3.485,2.58 -2.817,4.5c0.819,2.351 3.142,2.327 6.387,1.821c2.07,-0.298 2.937,-0.177 3.25,0.72c0.306,0.88 -0.323,1.501 -1.777,2.007c-2.316,0.807 -3.419,0.124 -3.986,-0.926c-0.209,-0.37 -0.409,-0.542 -0.84,-0.392c-1.075,0.375 -1.528,1.498 -1.16,2.557c0.45,1.292 1.882,2.461 5.578,1.174c2.926,-1.019 3.698,-2.955 3.036,-4.857c-1.356,-3.895 -7.474,-1.704 -8.343,-4.199c-0.269,-0.772 0.103,-1.324 0.713,-1.536c2.154,-0.75 3.46,2.538 4.771,2.082c0.717,-0.251 1.042,-1.912 0.736,-2.79c-0.125,-0.359 -0.307,-0.537 -0.683,-0.406c-1.112,0.385 -2.459,-0.592 -4.865,0.245Z" style="fill:#5a5c35;fill-rule:nonzero;stroke:#5a5c35;stroke-width:0.24px;"/><path d="M64.011,67.612c-0.843,0.796 -2.115,0.639 -2.833,-0.12c-0.641,-0.678 -0.596,-1.322 0.026,-1.91c0.925,-0.875 3.032,-1.191 3.985,-2.092c0.98,-0.927 0.814,-2.65 0.071,-3.437c-0.209,-0.221 -0.423,-0.254 -0.63,-0.058c-0.207,0.195 -0.209,0.719 -0.94,1.41c-0.87,0.823 -2.439,1.626 -3.337,2.474c-1.271,1.201 -1.435,2.767 -0.157,4.12c0.902,0.954 2.891,2.312 4.079,3.569c0.848,0.898 1.339,1.584 1.429,2.675c0.019,0.296 0.132,0.581 0.236,0.692c0.222,0.235 0.424,0.227 0.645,0.018c0.11,-0.104 0.542,-0.588 1.383,-1.382c0.318,-0.3 0.784,-0.665 1.046,-0.913c0.318,-0.301 0.505,-0.739 0.153,-1.112c-0.679,-0.718 -2.973,-0.406 -4.122,-1.621c-0.704,-0.746 -0.63,-1.47 0.199,-2.253c1.396,-1.319 3.505,-1.273 4.927,0.232c0.706,0.748 0.74,1.475 0.381,1.814c-0.263,0.248 -0.399,0.298 -0.606,0.494c-0.111,0.104 -0.142,0.265 0.014,0.43c0.378,0.4 1.19,0.18 1.978,-0.564c1.2,-1.135 1.27,-2.636 -0.792,-4.818c-2.075,-2.195 -3.874,-2.193 -5.006,-1.124c-1.174,1.11 -1.121,2.523 -2.129,3.476Z" style="fill:#5a5c35;fill-rule:nonzero;stroke:#5a5c35;stroke-width:0.24px;"/><path d="M73.517,50.99c0.075,-0.276 0.312,-0.349 0.587,-0.274c1.008,0.274 2.188,0.281 2.549,0.183c0.408,-0.124 0.51,-0.352 0.625,-0.773c0.274,-1.008 0.143,-1.97 -0.426,-2.125c-0.88,-0.24 -1.532,1.65 -2.504,1.385c-0.348,-0.095 -0.437,-0.276 -0.342,-0.624c0.21,-0.77 0.79,-1.38 0.87,-1.674c0.09,-0.33 -0.192,-0.525 -1.051,-0.759c-0.697,-0.19 -1.06,-0.23 -1.16,0.137c-0.205,0.752 0.908,1.508 0.674,2.37c-0.11,0.403 -0.399,0.521 -0.783,0.416c-0.917,-0.249 -1.56,-0.563 -2.11,-0.713c-0.477,-0.129 -0.71,0.437 -0.984,1.443c-0.21,0.771 -0.202,1.245 0.22,1.36c0.568,0.155 1.578,-0.732 2.531,-0.472c0.348,0.095 0.528,0.303 0.423,0.687c-0.28,1.027 -1.704,1.268 -1.924,2.075c-0.13,0.476 0.264,0.623 0.905,0.797c0.933,0.255 1.201,0.21 1.311,-0.194c0.08,-0.293 -0.034,-1.033 0.171,-1.784c0.095,-0.349 0.254,-0.424 0.547,-0.344c0.953,0.26 0.789,2.815 1.522,3.014c0.33,0.09 0.906,-0.58 1.171,-1.551c0.075,-0.275 0.042,-0.442 -0.215,-0.728c-0.27,-0.31 -1.182,-1.009 -2.154,-1.274c-0.312,-0.085 -0.538,-0.265 -0.453,-0.578Z" style="fill:#5a5c35;fill-rule:nonzero;stroke:#5a5c35;stroke-width:0.24px;"/></g><g id="Mushrooms"><path d="M36.04,20.559c-0.355,0.25 -0.526,0.688 -0.433,1.113c0.093,0.424 0.432,0.751 0.859,0.83c3.882,0.714 11.535,2.122 15.351,2.824c0.422,0.078 0.849,-0.101 1.089,-0.456c0.24,-0.355 0.247,-0.819 0.019,-1.181c-1.444,-2.278 -4.123,-5.714 -7.44,-6.324c-3.304,-0.608 -7.172,1.6 -9.445,3.194Z" style="fill:#5a5c35;"/><path d="M20.521,33.354c-0.157,0.412 -0.064,0.878 0.239,1.198c0.303,0.32 0.763,0.439 1.183,0.305c2.957,-0.939 8.38,-2.663 12.334,-3.919c0.867,-0.276 1.472,-1.06 1.52,-1.968c0.047,-0.908 -0.473,-1.751 -1.307,-2.115c-2.426,-1.066 -5.378,-1.911 -7.724,-1.165c-3.248,1.032 -5.266,5.091 -6.245,7.664Z" style="fill:#5a5c35;"/><path d="M46.804,30.557c-0.417,0.155 -0.707,0.536 -0.745,0.979c-0.037,0.443 0.184,0.868 0.569,1.091c3.399,1.967 10.209,5.906 13.431,7.77c0.366,0.212 0.819,0.206 1.179,-0.017c0.36,-0.222 0.568,-0.624 0.542,-1.047c-0.18,-2.856 -0.935,-7.828 -3.957,-9.577c-2.982,-1.725 -8.105,-0.275 -11.019,0.801Z" style="fill:#5a5c35;"/><path d="M56.511,43.745c-0.494,-0.093 -0.998,0.105 -1.298,0.508c-0.3,0.403 -0.344,0.942 -0.113,1.389c1.52,2.946 4.148,8.04 5.603,10.861c0.221,0.427 0.657,0.7 1.138,0.712c0.481,0.012 0.93,-0.24 1.171,-0.656c1.327,-2.297 3.054,-6.1 1.753,-8.62c-1.281,-2.483 -5.475,-3.669 -8.254,-4.194Z" style="fill:#5a5c35;"/><path d="M16.347,49.786c-0.153,0.52 -0.002,1.082 0.392,1.455c0.393,0.373 0.962,0.494 1.474,0.314c2.499,-0.878 6.352,-2.235 8.959,-3.154c0.535,-0.188 0.911,-0.672 0.96,-1.237c0.05,-0.565 -0.235,-1.107 -0.73,-1.386c-2.077,-1.159 -4.989,-2.39 -7.072,-1.656c-2.123,0.748 -3.342,3.524 -3.983,5.664Z" style="fill:#5a5c35;"/><path d="M43.14,21.791c0.093,-0.185 0.84,-0.181 1.024,-0.088c0.185,0.094 0.78,0.502 0.687,0.686c-0,0 -2.103,3.578 -3.361,9.949c-0.58,2.933 -1.025,6.29 -1.112,10.289c-0.07,3.196 0.194,6.858 0.718,10.624c0.449,3.23 1.13,6.303 2.17,9.882c0.155,0.601 -0.52,1.423 -1.121,1.578c-0.601,0.155 -1.501,-0.338 -1.656,-0.939c-0.839,-3.73 -1.317,-6.959 -1.602,-10.291c-0.329,-3.862 -0.4,-7.397 -0.214,-10.651c0.232,-4.055 0.751,-7.826 1.392,-10.793c1.398,-6.473 3.075,-10.246 3.075,-10.246Z" style="fill:#5a5c35;"/><path d="M52.677,35.811c0.128,-0.162 0.573,-0.007 0.735,0.122c0.162,0.129 0.527,0.573 0.398,0.735c-1.411,1.786 -2.418,3.428 -3.057,5.001c-2.257,5.548 -0.751,9.953 -3.031,16.196c-0.718,1.968 -1.767,4.107 -3.396,6.494c-0.284,0.391 -1.274,0.425 -1.665,0.142c-0.391,-0.284 -0.686,-1.118 -0.402,-1.509c2.178,-2.824 3.333,-5.162 4.083,-7.446c1.47,-4.483 1.175,-8.1 2.327,-12.146c0.657,-2.308 1.817,-4.863 4.008,-7.589Z" style="fill:#5a5c35;"/><path d="M27.848,32.165c-0.088,-0.188 0.201,-0.645 0.388,-0.733c0.188,-0.088 0.906,0.152 0.994,0.339c1.775,3.745 2.694,6.705 3.309,9.32c1.705,7.25 -0.016,10.758 1.595,14.621c0.893,2.144 2.562,3.965 6.768,6.964c0.387,0.29 0.413,1.255 0.124,1.642c-0.29,0.386 -1.359,0.349 -1.746,0.06c-4.364,-3.437 -6.103,-5.715 -6.976,-8.054c-1.488,-3.984 0.378,-7.472 -1.224,-14.868c-0.559,-2.581 -1.516,-5.597 -3.232,-9.291Z" style="fill:#5a5c35;"/><path d="M21.492,49.635c-0.231,-0.408 -0.087,-0.927 0.321,-1.158c0.408,-0.232 0.927,-0.088 1.158,0.321c0,-0 3.072,5.426 7.849,9.716c3.095,2.779 6.909,5.104 11.087,5.011c2.771,-0.092 4.413,-0.589 5.475,-1.418c1.037,-0.81 1.491,-1.918 1.974,-3.132c1.143,-2.875 2.301,-6.33 8.751,-8.876c0.437,-0.172 0.931,0.043 1.103,0.479c0.172,0.436 -0.042,0.93 -0.479,1.103c-5.752,2.27 -6.776,5.358 -7.795,7.922c-0.599,1.505 -1.222,2.84 -2.508,3.844c-1.259,0.983 -3.183,1.669 -6.472,1.777c-0.003,0 -0.006,0 -0.009,0.001c-4.605,0.104 -8.849,-2.381 -12.263,-5.446c-4.987,-4.478 -8.192,-10.144 -8.192,-10.144Z" style="fill:#5a5c35;"/></g></g></svg>