<?xml version="1.0" encoding="UTF-8" standalone="no"?><!DOCTYPE svg PUBLIC "-//W3C//DTD SVG 1.1//EN" "http://www.w3.org/Graphics/SVG/1.1/DTD/svg11.dtd"><svg width="100%" height="100%" viewBox="0 0 4 4" version="1.1" xmlns="http://www.w3.org/2000/svg" xmlns:xlink="http://www.w3.org/1999/xlink" xml:space="preserve" xmlns:serif="http://www.serif.com/" style="fill-rule:evenodd;clip-rule:evenodd;stroke-linejoin:round;stroke-miterlimit:2;"><g id="Mushroom-Group" serif:id="Mushroom Group"><path d="M1.604,0.563c-0.024,0.017 -0.035,0.046 -0.029,0.075c0.006,0.028 0.029,0.05 0.058,0.055c0.26,0.048 0.772,0.142 1.028,0.189c0.028,0.006 0.056,-0.006 0.073,-0.03c0.016,-0.024 0.016,-0.055 0.001,-0.079c-0.097,-0.153 -0.276,-0.383 -0.498,-0.424c-0.222,-0.04 -0.481,0.107 -0.633,0.214Z" style="fill:#5a5c35;"/><path d="M0.565,1.42c-0.011,0.028 -0.004,0.059 0.016,0.08c0.02,0.022 0.051,0.03 0.079,0.021c0.198,-0.063 0.561,-0.179 0.826,-0.263c0.058,-0.018 0.099,-0.071 0.102,-0.132c0.003,-0.06 -0.032,-0.117 -0.088,-0.141c-0.162,-0.072 -0.36,-0.128 -0.517,-0.078c-0.218,0.069 -0.353,0.341 -0.418,0.513Z" style="fill:#5a5c35;"/><path d="M2.325,1.233c-0.028,0.01 -0.047,0.036 -0.05,0.065c-0.002,0.03 0.012,0.058 0.038,0.073c0.228,0.132 0.684,0.396 0.9,0.521c0.024,0.014 0.054,0.013 0.079,-0.001c0.024,-0.015 0.038,-0.042 0.036,-0.071c-0.012,-0.191 -0.063,-0.524 -0.265,-0.641c-0.2,-0.115 -0.543,-0.018 -0.738,0.054Z" style="fill:#5a5c35;"/><path d="M2.975,2.116c-0.033,-0.006 -0.067,0.007 -0.087,0.034c-0.02,0.027 -0.023,0.063 -0.008,0.093c0.102,0.197 0.278,0.538 0.376,0.727c0.015,0.029 0.044,0.047 0.076,0.048c0.032,0.001 0.062,-0.016 0.078,-0.044c0.089,-0.154 0.205,-0.408 0.118,-0.577c-0.086,-0.167 -0.367,-0.246 -0.553,-0.281Z" style="fill:#5a5c35;"/><path d="M0.285,2.52c-0.01,0.035 0,0.073 0.027,0.098c0.026,0.025 0.064,0.033 0.098,0.021c0.168,-0.059 0.426,-0.15 0.6,-0.211c0.036,-0.013 0.061,-0.045 0.065,-0.083c0.003,-0.038 -0.016,-0.074 -0.049,-0.093c-0.139,-0.078 -0.335,-0.16 -0.474,-0.111c-0.142,0.05 -0.224,0.236 -0.267,0.379Z" style="fill:#5a5c35;"/><path d="M2.112,0.65c0.007,-0.014 0.024,-0.02 0.038,-0.013c0.013,0.007 0.019,0.024 -0.013,0.053l0.024,-0.013c-0,-0 -0.005,0.009 -0.009,0.019c-0.015,0.033 -0.045,0.102 -0.08,0.204c-0.022,0.065 -0.046,0.143 -0.07,0.233c-0.072,0.278 -0.141,0.672 -0.13,1.154c0.009,0.342 0.059,0.727 0.173,1.147c0.007,0.028 -0.01,0.056 -0.038,0.064c-0.028,0.007 -0.056,-0.01 -0.063,-0.038c-0.105,-0.43 -0.143,-0.824 -0.145,-1.172c-0.002,-0.489 0.07,-0.888 0.147,-1.17c0.025,-0.092 0.05,-0.171 0.073,-0.237c0.036,-0.104 0.066,-0.175 0.082,-0.208c0.005,-0.011 0.008,-0.018 0.009,-0.021c0.001,-0.001 0.002,-0.002 0.002,-0.002Z" style="fill:#5a5c35;"/><path d="M2.728,1.594c0.011,-0.013 0.03,-0.016 0.043,-0.005c0.013,0.01 0.015,0.029 0.004,0.042c-0.094,0.119 -0.158,0.229 -0.201,0.334c-0.2,0.488 0.015,0.864 -0.451,1.523c-0.017,0.022 -0.048,0.027 -0.071,0.011c-0.022,-0.016 -0.027,-0.048 -0.011,-0.07c0.144,-0.191 0.227,-0.358 0.275,-0.512c0.151,-0.474 0.006,-0.82 0.412,-1.323Z" style="fill:#5a5c35;"/><path d="M1.065,1.327c-0.007,-0.015 -0.001,-0.033 0.014,-0.04c0.015,-0.007 0.033,-0.001 0.04,0.014c0.452,0.949 0.187,1.266 0.332,1.62c0.058,0.145 0.19,0.293 0.47,0.497c0.022,0.017 0.027,0.048 0.01,0.071c-0.016,0.022 -0.048,0.026 -0.07,0.01c-0.294,-0.227 -0.425,-0.393 -0.485,-0.548c-0.137,-0.358 0.13,-0.67 -0.311,-1.624Z" style="fill:#5a5c35;"/><path d="M0.679,2.482c0,0 0.584,1.032 1.319,1.015c0.813,-0.026 0.288,-0.58 1.105,-0.903" style="fill:none;stroke:#5a5c35;stroke-width:0.12px;stroke-linecap:round;stroke-miterlimit:1.5;"/></g></svg>