<?xml version="1.0" encoding="UTF-8" standalone="no"?><!DOCTYPE svg PUBLIC "-//W3C//DTD SVG 1.1//EN" "http://www.w3.org/Graphics/SVG/1.1/DTD/svg11.dtd"><svg width="100%" height="100%" viewBox="0 0 350 350" version="1.1" xmlns="http://www.w3.org/2000/svg" xmlns:xlink="http://www.w3.org/1999/xlink" xml:space="preserve" xmlns:serif="http://www.serif.com/" style="fill-rule:evenodd;clip-rule:evenodd;stroke-linejoin:round;stroke-miterlimit:2;"><g id="Expanded--USE-THIS-" serif:id="Expanded (USE THIS)"><g id="Logo"><g id="Text"><path d="M34.418,142.404c-8.44,-2.75 -9.516,-5.729 -8.566,-8.832c1.138,-3.709 3.701,-5.325 4.79,-8.883c0.95,-3.104 0.902,-5.106 1.435,-6.847c0.556,-1.816 2.145,-2.406 4.267,-1.757c2.046,0.627 4.934,2.836 3.728,6.772c-0.763,2.492 -2.128,3.977 -2.777,6.096c-0.788,2.573 0.82,4.886 5.056,6.183c4.009,1.228 6.275,-0.23 7.341,-3.711c1.9,-6.205 -1.16,-11.611 -10.188,-18.348c-5.851,-4.44 -8.152,-8.538 -11.479,-9.557c-1.588,-0.486 -2.25,0.056 -2.644,1.342c-0.51,1.665 0.669,3.764 -1.139,9.666c-0.905,2.951 -3.784,6.952 -4.572,9.525c-3.595,11.74 4.97,22.136 22.077,27.374c14.539,4.452 23.574,-0.471 27.285,-12.59c3.337,-10.896 0.661,-21.067 -14.256,-25.635c-2.647,-0.811 -4.118,-0.599 -4.489,0.611c-0.324,1.06 -0.079,1.88 2.668,3.714c5.505,3.672 8.106,8.441 5.974,15.402c-3.108,10.151 -12.256,13.228 -24.511,9.475Z" style="fill:#a5b987;fill-rule:nonzero;"/><path d="M44.219,74.279c-2.608,2.974 -2.59,6.675 0.275,9.292c7.445,6.634 16.415,6.602 22.25,11.719c6.61,5.796 6.231,14.518 8.728,16.707c1.306,1.146 2.572,0.781 3.563,-0.35c2.61,-2.976 7.796,-10.212 11.661,-14.619c5.22,-5.954 11.851,-11.715 13.364,-13.44c1.408,-1.606 0.754,-3.021 -0.913,-4.483c-7.495,-6.572 -20.606,2.253 -25.429,-1.977c-1.489,-1.305 -1.376,-2.996 0.085,-4.662c2.612,-2.979 4.474,-1.978 5.83,-3.525c0.939,-1.071 0.501,-3.454 -2.533,-6.114c-3.271,-2.868 -7.237,-3.505 -10.836,0.6c-4.281,4.883 -4.053,10.022 0.646,14.141c3.51,3.081 11.681,5.295 14.778,8.01c2.978,2.611 4.568,6.323 1.173,10.195c-3.76,4.288 -8.239,5.312 -11.931,2.074c-5.062,-4.438 -3.789,-9.854 -9.942,-15.565c-1.606,-1.408 -3.837,-2.943 -5.443,-4.351c-4.909,-4.726 1.8,-13.698 -1.057,-16.203c-1.31,-1.149 -2.532,-0.956 -3.576,0.235c-1.201,1.37 -2.843,3.723 -4.567,5.689c-2.141,2.441 -4.573,4.734 -6.126,6.627Z" style="fill:#a5b987;fill-rule:nonzero;"/><path d="M96.314,28.17c-5.644,2.481 -7.534,4.869 -6.42,7.405c0.924,2.101 8.237,2.605 13.715,15.068c3.154,7.173 -0.533,14.327 1.952,19.979c2.357,5.364 9.685,5.512 14.68,3.317c6.815,-2.996 8.737,-6.693 7.91,-12.118c-0.43,-2.749 -0.266,-5.328 2.344,-6.475c1.813,-0.797 2.797,0.066 3.402,1.442c0.762,1.734 0.875,3.759 1.576,5.354c1.306,2.97 3.562,3.189 8.632,0.96c4.925,-2.165 5.835,-4.813 4.943,-6.842c-2.068,-4.704 -14.785,-6.289 -19.755,-17.595c-3.951,-8.986 4.261,-20.207 2.796,-23.54c-0.51,-1.16 -1.545,-1.743 -2.849,-1.169c-2.754,1.21 -6.753,3.13 -8.782,4.022c-2.892,1.272 -6.865,2.856 -8.17,3.43c-1.667,0.733 -2.051,2.025 -1.477,3.33c1.21,2.754 9.938,4.106 13.729,12.73c4.428,10.074 2.434,19.512 -5.904,23.177c-4.713,2.072 -7.858,0.428 -9.355,-2.978c-3.602,-8.194 1.914,-21.426 -0.602,-27.151c-1.879,-4.275 -5.984,-5.15 -12.365,-2.346Z" style="fill:#a5b987;fill-rule:nonzero;"/><path d="M173.457,8.378c-10.449,-0.05 -17.277,5.292 -17.317,13.764c-0.049,10.374 9.111,13.506 22.561,16.025c8.545,1.703 11.785,3.382 11.766,7.341c-0.019,3.88 -3.353,5.448 -9.768,5.417c-10.216,-0.048 -13.602,-4.261 -14.369,-9.175c-0.308,-1.743 -0.858,-2.696 -2.756,-2.705c-4.746,-0.023 -8.086,3.762 -8.109,8.434c-0.027,5.699 3.977,12.281 20.281,12.359c12.91,0.061 18.632,-6.475 18.672,-14.866c0.082,-17.183 -26.994,-17.074 -26.942,-28.081c0.016,-3.405 2.242,-5.057 4.935,-5.045c9.504,0.046 10.067,14.777 15.849,14.805c3.165,0.011 6.749,-6.063 6.767,-9.939c0.008,-1.582 -0.463,-2.534 -2.121,-2.541c-4.904,-0.033 -8.836,-5.743 -19.449,-5.793Z" style="fill:#a5b987;fill-rule:nonzero;"/><path d="M240.459,32.951c3.975,1.776 2.184,8.695 5.436,10.149c2.891,1.292 10.162,-4.305 12.227,-8.926c0.839,-1.877 0.431,-3.098 -1.304,-3.873c-1.301,-0.582 -10.558,-4.122 -16.557,-6.804c-7.153,-3.197 -12.637,-6.244 -16.465,-7.954c-2.24,-1.001 -3.013,-0.048 -3.658,1.395c-0.484,1.083 -1.05,3.514 -1.825,5.249c-0.679,1.518 -2.002,3.702 -2.325,4.425c-0.582,1.301 -0.15,2.275 1.223,2.888c3.323,1.485 9.116,-5.466 14.172,-3.207c1.805,0.807 2.325,2.167 1.517,3.974c-3.069,6.868 -20.685,9.056 -25.435,19.684c-3.877,8.674 0.853,14.767 12.195,19.836c8.746,3.909 19.561,4.157 23.244,-4.085c0.872,-1.952 0.33,-3.842 -0.94,-7.792c-1.357,-4.336 -0.726,-6.136 -2.605,-6.976c-0.868,-0.387 -2.339,-0.004 -3.655,2.357c-6.803,12.311 -9.084,15.282 -13.565,13.279c-3.975,-1.777 -3.442,-6.656 -0.89,-12.367c6.171,-13.809 14.729,-23.255 19.21,-21.252Z" style="fill:#a5b987;fill-rule:nonzero;"/><path d="M257.646,97.951c6.067,6.575 15.272,8.854 21.38,3.218c2.213,-2.042 2.671,-3.65 1.651,-4.755c-2.308,-2.502 -9.761,0.173 -17.008,-7.681c-5.959,-6.459 -5.509,-14.737 -1.378,-18.549c2.038,-1.88 4.508,-2.005 6.168,-0.09c5.631,6.114 2.633,13.944 7.196,18.89c3.114,3.374 6.664,1.391 11.489,-3.061c1.165,-1.075 1.138,-1.804 0.441,-2.561c-1.074,-1.163 -5.215,-1.328 -9.509,-5.983c-4.564,-4.946 -8.52,-13.79 -3.688,-18.249c2.388,-2.203 4.948,-1.764 6.397,-0.193c4.989,5.414 4.601,15.143 9.54,20.496c3.973,4.306 7.694,3.673 11.59,0.079c2.557,-2.36 4.357,-5.313 2.8,-7c-1.02,-1.106 -3.395,-0.53 -6.133,-3.498c-2.576,-2.793 -5.221,-8.108 -7.53,-10.61c-7.086,-7.68 -15.733,-8.306 -29.933,4.796c-12.975,11.972 -13.78,23.58 -3.473,34.751Z" style="fill:#a5b987;fill-rule:nonzero;"/><path d="M322.322,102.646c-0.459,-1.432 -1.403,-2.044 -2.983,-1.538c-2.633,0.845 -6.344,7.938 -20.969,12.628c-10.252,3.287 -20.227,-2.41 -23.544,-1.346c-1.357,0.435 -2.02,1.479 -1.681,2.534c0.749,2.337 2.425,6.786 3.583,10.397c1.04,3.244 1.945,7.362 2.211,8.192c0.508,1.584 1.281,1.918 2.562,1.507c4.75,-1.523 5.862,-13.608 17.999,-17.5c11.534,-3.699 21.35,-1.607 23.576,5.333c1.233,3.846 0.174,6.764 -5.782,8.674c-5.352,1.717 -11.527,0.869 -15.625,-6.468c-0.76,-1.331 -1.631,-1.716 -2.837,-1.329c-1.131,0.363 -1.821,1.581 -1.414,3.112c1.564,5.395 -0.093,8.004 -4.442,9.481c-7.791,2.665 -11.043,7.043 -7.734,17.363c1.378,4.295 2.661,5.962 4.319,5.43c1.131,-0.362 1.791,-1.156 2.444,-3.527c0.647,-1.87 2.345,-3.577 4.739,-4.927c5.418,-3.066 6.354,-6.108 4.901,-12.455c-0.403,-2.033 -0.31,-3.817 1.198,-4.301c4.978,-1.587 10.462,13.439 21.242,9.982c5.653,-1.812 8.649,-8.256 6.185,-15.94c-1.161,-3.62 -2.645,-7.469 -3.975,-11.618c-1.669,-5.204 -3.369,-11.799 -3.973,-13.684Z" style="fill:#a5b987;fill-rule:nonzero;"/><path d="M42.426,204.65c0.313,1.149 -0.381,1.914 -1.527,2.227c-4.201,1.145 -8.451,3.614 -9.542,4.73c-1.202,1.311 -1.085,2.343 -0.606,4.097c1.144,4.201 3.65,7.375 6.018,6.73c3.667,-1 2.015,-9.165 6.064,-10.269c1.451,-0.395 2.152,0.07 2.548,1.521c0.874,3.208 0.082,6.624 0.415,7.846c0.375,1.375 1.798,1.48 5.378,0.504c2.903,-0.791 4.291,-1.416 3.875,-2.943c-0.853,-3.132 -6.45,-3.494 -7.428,-7.084c-0.458,-1.68 0.327,-2.715 1.931,-3.152c3.819,-1.041 6.791,-1.276 9.082,-1.901c1.986,-0.541 1.626,-3.066 0.483,-7.261c-0.875,-3.209 -1.909,-4.894 -3.665,-4.416c-2.368,0.646 -4.119,5.964 -8.091,7.047c-1.451,0.395 -2.536,0.027 -2.972,-1.574c-1.166,-4.277 3.438,-8.157 2.523,-11.516c-0.541,-1.985 -2.263,-1.679 -4.936,-0.951c-3.886,1.059 -4.754,1.788 -4.297,3.468c0.334,1.223 2.305,3.639 3.159,6.771c0.395,1.451 -0.014,2.055 -1.237,2.388c-3.971,1.083 -8.781,-8.438 -11.837,-7.605c-1.375,0.375 -2.028,3.999 -0.925,8.047c0.313,1.146 0.785,1.674 2.312,2.16c1.624,0.539 6.378,1.123 10.427,0.02c1.298,-0.354 2.493,-0.186 2.848,1.116Z" style="fill:#a5b987;fill-rule:nonzero;"/><path d="M86.876,259.911c-3.296,-2.472 -4.002,-9.321 -8.371,-12.59c-1.775,-1.327 -3.548,-1.468 -4.685,0.052c-3.932,5.256 -2.369,14.136 -6.874,20.158c-5.548,7.417 -18.366,13.054 -20.69,16.16c-0.948,1.268 -0.883,2.503 0.258,3.357c1.267,0.948 4.009,2.702 6.159,4.311c2.153,1.61 4.707,4.015 5.341,4.489c1.142,0.854 2.266,0.806 3.166,-0.398c4.265,-5.701 3.138,-17.021 9.59,-25.646c4.032,-5.39 9.936,-8.787 13.234,-6.319c4.947,3.7 1.275,17.866 -2.52,22.939c-5.264,7.038 -12.025,7.612 -15.2,11.857c-1.516,2.027 -1.023,3.087 4.615,7.304c8.302,6.211 9.743,6.4 11.212,4.436c2.795,-3.738 -3.724,-12.468 2.346,-20.582c6.973,-9.322 16.664,-12.755 21.612,-9.053c4.181,3.127 4.245,6.34 0.956,10.605c-5.866,7.974 -13.871,9.305 -18.849,15.96c-3.506,4.688 -2.316,9.826 3.133,13.902c6.34,4.743 12.461,2.505 16.632,-3.069c2.228,-2.979 2.163,-5.006 1.276,-5.67c-1.522,-1.138 -4.577,0.83 -8.063,-1.778c-1.965,-1.47 -4.201,-4.033 -2.208,-6.696c3.795,-5.074 15.611,-1.97 23.501,-12.385c3.348,-4.608 2.184,-9.528 -1.81,-12.515c-7.092,-5.306 -16.131,-1.291 -19.493,-3.806c-1.586,-1.186 -1.365,-2.01 -0.37,-3.737c1.596,-2.665 2.192,-5.577 -0.971,-7.943c-3.423,-2.561 -9.058,-0.449 -12.927,-3.343Z" style="fill:#a5b987;fill-rule:nonzero;"/><path d="M150.124,288.077c-6.144,-0.507 -8.944,0.692 -9.172,3.453c-0.189,2.287 6.001,6.213 4.881,19.781c-0.645,7.81 -7.295,12.343 -7.803,18.496c-0.482,5.839 5.89,9.461 11.327,9.91c7.42,0.613 10.871,-1.722 12.728,-6.887c0.932,-2.621 2.305,-4.81 5.146,-4.576c1.973,0.163 2.428,1.392 2.304,2.89c-0.156,1.887 -1.022,3.721 -1.165,5.457c-0.267,3.234 1.613,4.501 7.132,4.957c5.362,0.442 7.423,-1.452 7.606,-3.661c0.422,-5.122 -10.004,-12.573 -8.988,-24.882c0.808,-9.783 13.374,-15.736 13.673,-19.365c0.104,-1.263 -0.527,-2.268 -1.948,-2.385c-2.998,-0.248 -7.428,-0.465 -9.637,-0.647c-3.149,-0.26 -7.396,-0.76 -8.817,-0.877c-1.816,-0.15 -2.769,0.804 -2.886,2.224c-0.247,2.999 6.782,8.345 6.007,17.734c-0.906,10.967 -7.155,18.315 -16.232,17.566c-5.131,-0.424 -7.113,-3.368 -6.807,-7.076c0.736,-8.92 11.891,-17.927 12.405,-24.158c0.384,-4.654 -2.808,-7.38 -9.754,-7.954Z" style="fill:#a5b987;fill-rule:nonzero;"/><path d="M211.923,283.402c-9.868,3.436 -14.525,10.747 -11.739,18.749c3.411,9.797 13.092,9.696 26.612,7.588c8.625,-1.242 12.238,-0.739 13.54,3c1.276,3.664 -1.345,6.254 -7.403,8.363c-9.649,3.36 -14.245,0.516 -16.606,-3.861c-0.872,-1.541 -1.707,-2.256 -3.5,-1.632c-4.482,1.561 -6.37,6.243 -4.834,10.655c1.874,5.381 7.842,10.253 23.241,4.892c12.191,-4.245 15.408,-12.315 12.649,-20.239c-5.651,-16.228 -31.142,-7.101 -34.762,-17.496c-1.119,-3.215 0.428,-5.515 2.971,-6.4c8.976,-3.125 14.417,10.576 19.878,8.675c2.988,-1.045 4.342,-7.966 3.068,-11.626c-0.521,-1.494 -1.281,-2.235 -2.847,-1.689c-4.635,1.603 -10.246,-2.469 -20.268,1.021Z" style="fill:#a5b987;fill-rule:nonzero;"/><path d="M266.292,276.963c-3.512,3.318 -8.814,2.665 -11.805,-0.5c-2.67,-2.826 -2.482,-5.51 0.108,-7.958c3.857,-3.644 12.635,-4.963 16.606,-8.717c4.082,-3.861 3.39,-11.042 0.293,-14.319c-0.869,-0.92 -1.761,-1.058 -2.623,-0.243c-0.863,0.814 -0.869,2.996 -3.917,5.876c-3.626,3.426 -10.161,6.773 -13.903,10.309c-5.296,5.004 -5.981,11.526 -0.654,17.164c3.757,3.976 12.046,9.635 16.994,14.872c3.534,3.74 5.581,6.598 5.957,11.144c0.077,1.235 0.547,2.424 0.982,2.884c0.925,0.978 1.766,0.946 2.686,0.076c0.461,-0.435 2.26,-2.448 5.765,-5.76c1.322,-1.249 3.263,-2.77 4.356,-3.804c1.325,-1.251 2.105,-3.078 0.637,-4.631c-2.828,-2.992 -12.387,-1.692 -17.172,-6.756c-2.936,-3.107 -2.626,-6.123 0.828,-9.387c5.814,-5.494 14.603,-5.304 20.53,0.968c2.942,3.114 3.08,6.143 1.584,7.557c-1.094,1.034 -1.66,1.242 -2.523,2.058c-0.461,0.435 -0.592,1.103 0.059,1.792c1.574,1.666 4.958,0.75 8.239,-2.35c5.003,-4.727 5.295,-10.982 -3.299,-20.076c-8.643,-9.146 -16.143,-9.137 -20.858,-4.681c-4.893,4.623 -4.668,10.511 -8.87,14.482Z" style="fill:#a5b987;fill-rule:nonzero;"/><path d="M305.9,207.705c0.313,-1.148 1.299,-1.456 2.445,-1.143c4.201,1.145 9.116,1.174 10.623,0.765c1.7,-0.519 2.123,-1.469 2.601,-3.223c1.145,-4.201 0.596,-8.207 -1.772,-8.852c-3.666,-1 -6.387,6.875 -10.435,5.771c-1.451,-0.395 -1.819,-1.152 -1.424,-2.603c0.875,-3.208 3.291,-5.75 3.624,-6.972c0.374,-1.375 -0.799,-2.187 -4.379,-3.163c-2.903,-0.791 -4.417,-0.957 -4.833,0.57c-0.853,3.132 3.785,6.283 2.807,9.873c-0.458,1.681 -1.659,2.174 -3.263,1.737c-3.819,-1.041 -6.5,-2.346 -8.791,-2.971c-1.986,-0.541 -2.957,1.817 -4.1,6.012c-0.875,3.21 -0.839,5.186 0.918,5.665c2.367,0.645 6.574,-3.049 10.546,-1.967c1.451,0.396 2.2,1.264 1.763,2.865c-1.165,4.277 -7.102,5.283 -8.017,8.643c-0.541,1.985 1.098,2.595 3.771,3.324c3.886,1.059 5.004,0.871 5.461,-0.808c0.334,-1.223 -0.139,-4.306 0.715,-7.438c0.395,-1.451 1.055,-1.763 2.277,-1.43c3.972,1.082 3.286,11.727 6.341,12.559c1.375,0.375 3.777,-2.417 4.88,-6.465c0.313,-1.146 0.174,-1.84 -0.896,-3.034c-1.126,-1.289 -4.926,-4.204 -8.974,-5.308c-1.299,-0.353 -2.243,-1.104 -1.888,-2.407Z" style="fill:#a5b987;fill-rule:nonzero;"/></g><g id="Mushrooms"><path d="M149.746,80.907c-1.479,1.042 -2.19,2.87 -1.802,4.638c0.387,1.768 1.797,3.131 3.577,3.458c16.175,2.977 48.063,8.844 63.963,11.77c1.756,0.323 3.536,-0.424 4.537,-1.902c1,-1.479 1.031,-3.41 0.077,-4.919c-6.017,-9.493 -17.177,-23.808 -30.998,-26.351c-13.767,-2.533 -29.882,6.666 -39.354,13.306Z" style="fill:#a5b987;"/><path d="M85.083,134.223c-0.652,1.717 -0.265,3.656 0.997,4.99c1.262,1.334 3.176,1.829 4.927,1.273c12.322,-3.916 34.919,-11.098 51.393,-16.333c3.612,-1.147 6.134,-4.413 6.332,-8.198c0.198,-3.784 -1.97,-7.295 -5.443,-8.812c-10.111,-4.444 -22.41,-7.963 -32.185,-4.856c-13.535,4.301 -21.94,21.214 -26.021,31.936Z" style="fill:#a5b987;"/><path d="M194.597,122.569c-1.737,0.644 -2.947,2.233 -3.104,4.079c-0.157,1.846 0.766,3.617 2.37,4.545c14.163,8.194 42.537,24.609 55.963,32.376c1.525,0.883 3.413,0.856 4.912,-0.071c1.499,-0.927 2.367,-2.603 2.259,-4.362c-0.751,-11.9 -3.895,-32.618 -16.49,-39.904c-12.425,-7.188 -33.77,-1.146 -45.91,3.337Z" style="fill:#a5b987;"/><path d="M235.041,177.516c-2.059,-0.384 -4.157,0.437 -5.406,2.118c-1.25,1.68 -1.434,3.926 -0.474,5.787c6.334,12.276 17.285,33.501 23.349,45.254c0.919,1.781 2.736,2.919 4.74,2.968c2.004,0.049 3.875,-0.999 4.88,-2.734c5.527,-9.571 12.722,-25.415 7.305,-35.915c-5.339,-10.347 -22.813,-15.287 -34.394,-17.478Z" style="fill:#a5b987;"/><path d="M67.692,202.687c-0.637,2.167 -0.007,4.508 1.632,6.063c1.639,1.554 4.01,2.06 6.141,1.309c10.415,-3.659 26.47,-9.314 37.33,-13.14c2.23,-0.785 3.795,-2.801 4.002,-5.156c0.207,-2.356 -0.982,-4.614 -3.041,-5.776c-8.655,-4.829 -20.791,-9.956 -29.467,-6.9c-8.848,3.116 -13.927,14.685 -16.597,23.6Z" style="fill:#a5b987;"/><path d="M179.329,86.041c0.389,-0.77 3.499,-0.753 4.269,-0.364c0.769,0.389 3.247,2.089 2.858,2.858c0,0 -8.759,14.909 -14.004,41.453c-2.414,12.221 -4.271,26.209 -4.633,42.871c-0.29,13.318 0.81,28.577 2.993,44.269c1.872,13.456 4.707,26.259 9.043,41.172c0.645,2.506 -2.166,5.931 -4.672,6.576c-2.505,0.645 -6.256,-1.407 -6.901,-3.913c-3.493,-15.542 -5.487,-28.993 -6.672,-42.878c-1.374,-16.094 -1.667,-30.821 -0.892,-44.381c0.967,-16.894 3.126,-32.606 5.797,-44.97c5.826,-26.969 12.814,-42.693 12.814,-42.693Z" style="fill:#a5b987;"/><path d="M219.065,144.458c0.537,-0.675 2.388,-0.028 3.063,0.509c0.675,0.537 2.197,2.388 1.66,3.063c-5.88,7.441 -10.075,14.283 -12.739,20.836c-9.402,23.119 -3.129,41.472 -12.626,67.485c-2.994,8.201 -7.366,17.112 -14.153,27.058c-1.183,1.628 -5.308,1.773 -6.936,0.59c-1.628,-1.182 -2.857,-4.657 -1.674,-6.285c9.073,-11.769 13.887,-21.508 17.009,-31.025c6.128,-18.68 4.898,-33.751 9.696,-50.61c2.737,-9.616 7.572,-20.26 16.7,-31.621Z" style="fill:#a5b987;"/><path d="M115.612,129.266c-0.366,-0.78 0.838,-2.688 1.619,-3.054c0.78,-0.367 3.772,0.634 4.138,1.414c7.398,15.603 11.226,27.939 13.789,38.835c7.105,30.208 -0.066,44.822 6.646,60.92c3.722,8.93 10.675,16.52 28.201,29.016c1.611,1.207 1.721,5.229 0.514,6.839c-1.207,1.61 -5.663,1.458 -7.273,0.251c-18.184,-14.319 -25.428,-23.811 -29.067,-33.557c-6.201,-16.602 1.577,-31.132 -5.099,-61.949c-2.33,-10.753 -6.317,-23.322 -13.468,-38.715Z" style="fill:#a5b987;"/><path d="M89.129,202.059c-0.963,-1.702 -0.363,-3.864 1.338,-4.827c1.701,-0.963 3.864,-0.363 4.826,1.338c0,0 12.799,22.612 32.704,40.484c12.895,11.578 28.788,21.267 46.196,20.88c11.544,-0.383 18.388,-2.454 22.812,-5.909c4.321,-3.373 6.212,-7.991 8.224,-13.05c4.764,-11.979 9.587,-26.373 36.464,-36.981c1.818,-0.718 3.877,0.176 4.594,1.994c0.718,1.818 -0.176,3.877 -1.994,4.595c-23.967,9.459 -28.234,22.328 -32.482,33.01c-2.495,6.271 -5.09,11.834 -10.447,16.016c-5.248,4.098 -13.263,6.955 -26.968,7.406c-0.012,-0 -0.024,0 -0.036,0.001c-19.191,0.434 -36.872,-9.92 -51.096,-22.691c-20.779,-18.658 -34.135,-42.266 -34.135,-42.266Z" style="fill:#a5b987;"/></g></g></g></svg>