<?xml version="1.0" encoding="UTF-8" standalone="no"?><!DOCTYPE svg PUBLIC "-//W3C//DTD SVG 1.1//EN" "http://www.w3.org/Graphics/SVG/1.1/DTD/svg11.dtd"><svg width="100%" height="100%" viewBox="0 0 4 4" version="1.1" xmlns="http://www.w3.org/2000/svg" xmlns:xlink="http://www.w3.org/1999/xlink" xml:space="preserve" xmlns:serif="http://www.serif.com/" style="fill-rule:evenodd;clip-rule:evenodd;stroke-linejoin:round;stroke-miterlimit:2;"><g id="Mushrooms"><path d="M1.583,0.442c-0.025,0.018 -0.038,0.05 -0.031,0.08c0.007,0.03 0.031,0.054 0.061,0.059c0.278,0.051 0.824,0.152 1.097,0.202c0.03,0.005 0.061,-0.007 0.078,-0.033c0.017,-0.025 0.017,-0.058 0.001,-0.084c-0.103,-0.163 -0.294,-0.408 -0.531,-0.452c-0.236,-0.043 -0.513,0.114 -0.675,0.228Z" style="fill:#a5b987;"/><path d="M0.474,1.356c-0.011,0.03 -0.004,0.063 0.018,0.086c0.021,0.023 0.054,0.031 0.084,0.022c0.211,-0.067 0.599,-0.191 0.881,-0.28c0.062,-0.02 0.105,-0.076 0.109,-0.141c0.003,-0.065 -0.034,-0.125 -0.094,-0.151c-0.173,-0.076 -0.384,-0.136 -0.551,-0.083c-0.232,0.074 -0.377,0.364 -0.447,0.547Z" style="fill:#a5b987;"/><path d="M2.352,1.157c-0.03,0.011 -0.051,0.038 -0.053,0.07c-0.003,0.031 0.013,0.062 0.04,0.077c0.243,0.141 0.73,0.422 0.96,0.555c0.026,0.016 0.058,0.015 0.084,-0.001c0.026,-0.016 0.041,-0.044 0.039,-0.075c-0.013,-0.204 -0.067,-0.559 -0.283,-0.684c-0.213,-0.123 -0.579,-0.019 -0.787,0.058Z" style="fill:#a5b987;"/><path d="M3.045,2.099c-0.035,-0.007 -0.071,0.007 -0.092,0.036c-0.022,0.029 -0.025,0.067 -0.008,0.099c0.108,0.211 0.296,0.574 0.4,0.776c0.016,0.03 0.047,0.05 0.081,0.051c0.034,0.001 0.066,-0.017 0.084,-0.047c0.094,-0.164 0.218,-0.436 0.125,-0.616c-0.092,-0.177 -0.391,-0.262 -0.59,-0.299Z" style="fill:#a5b987;"/><path d="M0.176,2.53c-0.011,0.037 0,0.077 0.028,0.104c0.028,0.027 0.069,0.035 0.106,0.022c0.178,-0.062 0.453,-0.159 0.64,-0.225c0.038,-0.013 0.065,-0.048 0.068,-0.088c0.004,-0.041 -0.017,-0.079 -0.052,-0.099c-0.148,-0.083 -0.356,-0.171 -0.505,-0.118c-0.152,0.053 -0.239,0.251 -0.285,0.404Z" style="fill:#a5b987;"/><path d="M2.09,0.53c0.007,-0.013 0.06,-0.013 0.073,-0.006c0.014,0.007 0.056,0.036 0.049,0.049c0,0 -0.15,0.256 -0.24,0.711c-0.041,0.209 -0.073,0.449 -0.079,0.735c-0.005,0.228 0.014,0.49 0.051,0.759c0.032,0.23 0.081,0.45 0.155,0.706c0.011,0.042 -0.037,0.101 -0.08,0.112c-0.043,0.011 -0.107,-0.024 -0.118,-0.067c-0.06,-0.266 -0.094,-0.497 -0.115,-0.735c-0.023,-0.276 -0.028,-0.528 -0.015,-0.761c0.017,-0.289 0.054,-0.559 0.1,-0.771c0.099,-0.462 0.219,-0.732 0.219,-0.732Z" style="fill:#a5b987;"/><path d="M2.771,1.532c0.01,-0.012 0.041,-0.001 0.053,0.009c0.011,0.009 0.038,0.041 0.028,0.052c-0.1,0.128 -0.172,0.245 -0.218,0.357c-0.161,0.397 -0.054,0.711 -0.216,1.157c-0.052,0.141 -0.127,0.294 -0.243,0.464c-0.02,0.028 -0.091,0.031 -0.119,0.01c-0.028,-0.02 -0.049,-0.08 -0.029,-0.108c0.156,-0.201 0.238,-0.368 0.292,-0.531c0.105,-0.321 0.084,-0.579 0.166,-0.868c0.047,-0.165 0.13,-0.347 0.286,-0.542Z" style="fill:#a5b987;"/><path d="M0.998,1.271c-0.006,-0.013 0.014,-0.046 0.028,-0.052c0.013,-0.006 0.064,0.011 0.071,0.024c0.126,0.268 0.192,0.479 0.236,0.666c0.122,0.518 -0.001,0.768 0.114,1.044c0.064,0.154 0.183,0.284 0.483,0.498c0.028,0.021 0.03,0.09 0.009,0.117c-0.021,0.028 -0.097,0.025 -0.125,0.004c-0.311,-0.245 -0.435,-0.408 -0.498,-0.575c-0.106,-0.284 0.027,-0.534 -0.087,-1.062c-0.04,-0.184 -0.109,-0.4 -0.231,-0.664Z" style="fill:#a5b987;"/><path d="M0.544,2.519c-0.017,-0.029 -0.006,-0.066 0.023,-0.082c0.029,-0.017 0.066,-0.007 0.083,0.023c-0,-0 0.219,0.387 0.56,0.694c0.221,0.198 0.494,0.364 0.792,0.358c0.198,-0.007 0.315,-0.043 0.391,-0.102c0.074,-0.058 0.107,-0.137 0.141,-0.223c0.082,-0.206 0.165,-0.453 0.625,-0.634c0.032,-0.013 0.067,0.003 0.079,0.034c0.012,0.031 -0.003,0.066 -0.034,0.078c-0.411,0.163 -0.484,0.383 -0.557,0.566c-0.043,0.108 -0.087,0.203 -0.179,0.275c-0.09,0.07 -0.227,0.119 -0.462,0.127c-0.001,-0 -0.001,-0 -0.001,-0c-0.329,0.007 -0.632,-0.17 -0.876,-0.389c-0.356,-0.32 -0.585,-0.725 -0.585,-0.725Z" style="fill:#a5b987;"/></g></svg>