<?xml version="1.0" encoding="UTF-8" standalone="no"?><!DOCTYPE svg PUBLIC "-//W3C//DTD SVG 1.1//EN" "http://www.w3.org/Graphics/SVG/1.1/DTD/svg11.dtd"><svg width="100%" height="100%" viewBox="0 0 350 350" version="1.1" xmlns="http://www.w3.org/2000/svg" xmlns:xlink="http://www.w3.org/1999/xlink" xml:space="preserve" xmlns:serif="http://www.serif.com/" style="fill-rule:evenodd;clip-rule:evenodd;stroke-linejoin:round;stroke-miterlimit:2;"><g id="Expanded--USE-THIS-" serif:id="Expanded (USE THIS)"><g id="Text"><path d="M34.839,147.158c-8.44,-2.75 -9.516,-5.729 -8.566,-8.833c1.138,-3.709 3.701,-5.325 4.79,-8.883c0.95,-3.103 0.902,-5.105 1.435,-6.846c0.556,-1.817 2.144,-2.407 4.267,-1.757c2.046,0.626 4.934,2.835 3.728,6.772c-0.763,2.491 -2.128,3.977 -2.777,6.096c-0.788,2.572 0.82,4.885 5.056,6.182c4.009,1.228 6.275,-0.23 7.341,-3.71c1.9,-6.205 -1.16,-11.611 -10.188,-18.349c-5.851,-4.439 -8.152,-8.538 -11.479,-9.557c-1.588,-0.486 -2.25,0.056 -2.644,1.343c-0.51,1.665 0.669,3.763 -1.139,9.666c-0.905,2.95 -3.784,6.951 -4.572,9.524c-3.595,11.74 4.97,22.136 22.077,27.375c14.538,4.452 23.574,-0.472 27.285,-12.59c3.336,-10.897 0.661,-21.068 -14.256,-25.636c-2.647,-0.81 -4.118,-0.599 -4.489,0.612c-0.324,1.059 -0.079,1.879 2.668,3.714c5.505,3.671 8.105,8.44 5.974,15.402c-3.108,10.15 -12.256,13.227 -24.511,9.475Z" style="fill:#5a5c35;fill-rule:nonzero;stroke:#5a5c35;stroke-width:1px;"/><path d="M44.64,79.032c-2.608,2.974 -2.59,6.676 0.275,9.293c7.445,6.633 16.415,6.602 22.25,11.718c6.61,5.796 6.231,14.518 8.728,16.708c1.306,1.145 2.572,0.781 3.563,-0.35c2.61,-2.976 7.796,-10.212 11.661,-14.62c5.22,-5.953 11.851,-11.714 13.364,-13.439c1.408,-1.607 0.754,-3.022 -0.913,-4.483c-7.495,-6.573 -20.606,2.252 -25.429,-1.977c-1.489,-1.306 -1.376,-2.996 0.085,-4.663c2.612,-2.979 4.473,-1.978 5.83,-3.525c0.939,-1.071 0.501,-3.454 -2.533,-6.114c-3.271,-2.868 -7.237,-3.504 -10.836,0.601c-4.281,4.882 -4.053,10.021 0.645,14.141c3.511,3.081 11.682,5.294 14.779,8.009c2.977,2.611 4.568,6.323 1.173,10.195c-3.76,4.288 -8.239,5.312 -11.931,2.075c-5.062,-4.439 -3.79,-9.854 -9.942,-15.565c-1.606,-1.408 -3.837,-2.943 -5.443,-4.351c-4.909,-4.726 1.8,-13.699 -1.057,-16.204c-1.31,-1.148 -2.532,-0.955 -3.576,0.236c-1.202,1.37 -2.844,3.723 -4.567,5.688c-2.141,2.442 -4.573,4.735 -6.126,6.627Z" style="fill:#5a5c35;fill-rule:nonzero;stroke:#5a5c35;stroke-width:1px;"/><path d="M96.735,32.924c-5.644,2.481 -7.534,4.869 -6.42,7.405c0.924,2.101 8.237,2.604 13.715,15.067c3.154,7.173 -0.533,14.328 1.951,19.979c2.358,5.364 9.686,5.513 14.681,3.317c6.815,-2.996 8.737,-6.692 7.909,-12.118c-0.429,-2.749 -0.265,-5.327 2.345,-6.475c1.813,-0.797 2.797,0.067 3.402,1.443c0.762,1.733 0.875,3.759 1.576,5.353c1.306,2.971 3.562,3.189 8.632,0.961c4.925,-2.165 5.835,-4.813 4.943,-6.842c-2.068,-4.705 -14.785,-6.29 -19.756,-17.595c-3.95,-8.987 4.262,-20.207 2.797,-23.541c-0.51,-1.16 -1.545,-1.743 -2.849,-1.169c-2.754,1.211 -6.753,3.131 -8.782,4.023c-2.892,1.271 -6.865,2.855 -8.17,3.429c-1.667,0.733 -2.051,2.026 -1.477,3.33c1.21,2.754 9.937,4.106 13.729,12.731c4.428,10.074 2.434,19.511 -5.904,23.177c-4.713,2.072 -7.858,0.428 -9.355,-2.979c-3.602,-8.193 1.914,-21.426 -0.602,-27.15c-1.879,-4.275 -5.985,-5.151 -12.365,-2.346Z" style="fill:#5a5c35;fill-rule:nonzero;stroke:#5a5c35;stroke-width:1px;"/><path d="M173.878,13.131c-10.449,-0.049 -17.277,5.292 -17.317,13.765c-0.049,10.373 9.111,13.505 22.561,16.024c8.545,1.704 11.785,3.382 11.766,7.341c-0.019,3.88 -3.353,5.448 -9.768,5.418c-10.217,-0.049 -13.602,-4.262 -14.369,-9.175c-0.309,-1.744 -0.858,-2.697 -2.756,-2.706c-4.746,-0.022 -8.086,3.763 -8.109,8.435c-0.027,5.698 3.976,12.281 20.281,12.358c12.91,0.062 18.632,-6.475 18.672,-14.865c0.082,-17.184 -26.994,-17.075 -26.942,-28.082c0.016,-3.405 2.242,-5.057 4.935,-5.044c9.504,0.045 10.067,14.776 15.849,14.804c3.165,0.011 6.749,-6.063 6.767,-9.939c0.008,-1.582 -0.463,-2.533 -2.121,-2.541c-4.904,-0.033 -8.837,-5.742 -19.449,-5.793Z" style="fill:#5a5c35;fill-rule:nonzero;stroke:#5a5c35;stroke-width:1px;"/><path d="M240.88,37.704c3.975,1.777 2.184,8.696 5.436,10.149c2.891,1.293 10.162,-4.305 12.227,-8.926c0.839,-1.876 0.431,-3.098 -1.304,-3.873c-1.301,-0.581 -10.558,-4.122 -16.557,-6.803c-7.153,-3.197 -12.637,-6.244 -16.465,-7.955c-2.24,-1.001 -3.013,-0.048 -3.658,1.396c-0.484,1.082 -1.05,3.513 -1.825,5.248c-0.679,1.518 -2.002,3.702 -2.325,4.425c-0.582,1.302 -0.15,2.275 1.223,2.889c3.323,1.485 9.116,-5.467 14.172,-3.207c1.805,0.806 2.325,2.166 1.517,3.974c-3.069,6.868 -20.685,9.056 -25.435,19.683c-3.877,8.675 0.853,14.767 12.195,19.836c8.746,3.909 19.561,4.157 23.244,-4.084c0.872,-1.952 0.33,-3.843 -0.94,-7.793c-1.357,-4.336 -0.726,-6.136 -2.605,-6.975c-0.868,-0.388 -2.34,-0.005 -3.655,2.356c-6.803,12.312 -9.084,15.282 -13.565,13.279c-3.976,-1.776 -3.443,-6.656 -0.89,-12.367c6.171,-13.808 14.729,-23.255 19.21,-21.252Z" style="fill:#5a5c35;fill-rule:nonzero;stroke:#5a5c35;stroke-width:1px;"/><path d="M258.067,102.705c6.067,6.575 15.272,8.853 21.38,3.217c2.213,-2.042 2.671,-3.649 1.651,-4.755c-2.308,-2.502 -9.761,0.174 -17.008,-7.681c-5.959,-6.459 -5.509,-14.737 -1.378,-18.549c2.038,-1.88 4.508,-2.005 6.168,-0.09c5.631,6.115 2.633,13.944 7.196,18.89c3.114,3.375 6.664,1.391 11.489,-3.061c1.165,-1.074 1.138,-1.804 0.441,-2.56c-1.074,-1.164 -5.215,-1.329 -9.51,-5.984c-4.563,-4.945 -8.519,-13.79 -3.687,-18.249c2.387,-2.202 4.948,-1.764 6.397,-0.193c4.989,5.415 4.601,15.144 9.54,20.497c3.973,4.305 7.694,3.672 11.59,0.078c2.557,-2.36 4.357,-5.313 2.8,-7c-1.02,-1.105 -3.395,-0.53 -6.133,-3.497c-2.577,-2.793 -5.221,-8.108 -7.53,-10.61c-7.086,-7.681 -15.733,-8.307 -29.933,4.795c-12.975,11.972 -13.78,23.58 -3.473,34.752Z" style="fill:#5a5c35;fill-rule:nonzero;stroke:#5a5c35;stroke-width:1px;"/><path d="M322.743,107.399c-0.459,-1.432 -1.403,-2.044 -2.983,-1.537c-2.634,0.844 -6.344,7.937 -20.969,12.627c-10.252,3.288 -20.227,-2.409 -23.544,-1.346c-1.357,0.435 -2.02,1.479 -1.681,2.535c0.749,2.337 2.425,6.786 3.583,10.397c1.04,3.243 1.945,7.361 2.211,8.191c0.508,1.584 1.281,1.919 2.562,1.508c4.75,-1.523 5.862,-13.609 17.999,-17.501c11.534,-3.699 21.35,-1.606 23.576,5.333c1.233,3.847 0.174,6.765 -5.782,8.675c-5.352,1.716 -11.527,0.868 -15.625,-6.468c-0.76,-1.331 -1.631,-1.716 -2.837,-1.329c-1.131,0.362 -1.821,1.58 -1.414,3.111c1.564,5.396 -0.093,8.004 -4.442,9.481c-7.791,2.665 -11.043,7.043 -7.734,17.363c1.378,4.296 2.661,5.963 4.319,5.431c1.131,-0.363 1.791,-1.156 2.444,-3.527c0.647,-1.871 2.344,-3.578 4.738,-4.927c5.419,-3.067 6.355,-6.109 4.902,-12.455c-0.403,-2.034 -0.31,-3.818 1.198,-4.301c4.978,-1.587 10.462,13.439 21.242,9.982c5.653,-1.813 8.649,-8.257 6.185,-15.941c-1.161,-3.619 -2.645,-7.469 -3.975,-11.617c-1.669,-5.205 -3.369,-11.8 -3.973,-13.685Z" style="fill:#5a5c35;fill-rule:nonzero;stroke:#5a5c35;stroke-width:1px;"/><path d="M42.846,209.404c0.314,1.149 -0.381,1.914 -1.526,2.226c-4.201,1.145 -8.452,3.614 -9.542,4.73c-1.202,1.311 -1.085,2.344 -0.607,4.098c1.145,4.201 3.651,7.374 6.019,6.729c3.666,-0.999 2.015,-9.165 6.063,-10.268c1.452,-0.396 2.153,0.069 2.548,1.521c0.875,3.208 0.083,6.624 0.416,7.846c0.374,1.375 1.798,1.479 5.378,0.503c2.903,-0.791 4.291,-1.416 3.875,-2.943c-0.853,-3.132 -6.45,-3.494 -7.428,-7.084c-0.458,-1.68 0.327,-2.714 1.931,-3.152c3.819,-1.04 6.79,-1.276 9.082,-1.901c1.986,-0.541 1.626,-3.065 0.483,-7.26c-0.875,-3.21 -1.909,-4.895 -3.666,-4.416c-2.367,0.645 -4.118,5.963 -8.09,7.046c-1.451,0.395 -2.536,0.027 -2.972,-1.574c-1.166,-4.277 3.438,-8.156 2.523,-11.515c-0.541,-1.985 -2.263,-1.68 -4.936,-0.951c-3.886,1.059 -4.754,1.787 -4.297,3.467c0.334,1.223 2.305,3.64 3.159,6.771c0.395,1.451 -0.015,2.055 -1.237,2.389c-3.971,1.082 -8.782,-8.438 -11.837,-7.605c-1.375,0.374 -2.028,3.999 -0.925,8.047c0.313,1.145 0.785,1.673 2.312,2.16c1.624,0.539 6.378,1.123 10.426,0.02c1.299,-0.354 2.494,-0.186 2.848,1.116Z" style="fill:#5a5c35;fill-rule:nonzero;stroke:#5a5c35;stroke-width:1px;"/><path d="M87.296,264.664c-3.295,-2.471 -4.001,-9.321 -8.37,-12.589c-1.775,-1.328 -3.548,-1.469 -4.685,0.051c-3.932,5.256 -2.369,14.136 -6.874,20.159c-5.548,7.417 -18.366,13.053 -20.69,16.16c-0.948,1.267 -0.884,2.502 0.258,3.356c1.267,0.948 4.008,2.702 6.159,4.311c2.153,1.611 4.707,4.015 5.341,4.49c1.142,0.854 2.266,0.805 3.166,-0.398c4.265,-5.702 3.138,-17.022 9.59,-25.646c4.032,-5.391 9.936,-8.787 13.234,-6.32c4.947,3.701 1.275,17.866 -2.52,22.939c-5.264,7.038 -12.025,7.613 -15.2,11.857c-1.516,2.027 -1.024,3.087 4.614,7.305c8.303,6.21 9.743,6.399 11.212,4.435c2.796,-3.738 -3.723,-12.468 2.347,-20.582c6.973,-9.322 16.664,-12.754 21.612,-9.053c4.181,3.128 4.245,6.341 0.956,10.606c-5.866,7.974 -13.871,9.305 -18.849,15.959c-3.507,4.688 -2.316,9.827 3.133,13.903c6.34,4.743 12.461,2.505 16.632,-3.07c2.228,-2.979 2.163,-5.006 1.276,-5.669c-1.523,-1.139 -4.577,0.829 -8.063,-1.779c-1.965,-1.47 -4.201,-4.032 -2.209,-6.696c3.796,-5.073 15.612,-1.97 23.502,-12.385c3.347,-4.607 2.184,-9.527 -1.81,-12.515c-7.092,-5.305 -16.131,-1.29 -19.493,-3.805c-1.586,-1.187 -1.366,-2.01 -0.37,-3.738c1.596,-2.665 2.192,-5.577 -0.971,-7.943c-3.423,-2.561 -9.058,-0.449 -12.928,-3.343Z" style="fill:#5a5c35;fill-rule:nonzero;stroke:#5a5c35;stroke-width:1px;"/><path d="M150.545,292.831c-6.144,-0.508 -8.944,0.691 -9.172,3.452c-0.189,2.288 6.001,6.214 4.881,19.782c-0.645,7.809 -7.295,12.343 -7.803,18.496c-0.482,5.839 5.89,9.46 11.327,9.909c7.42,0.613 10.871,-1.722 12.728,-6.886c0.932,-2.622 2.304,-4.811 5.146,-4.576c1.973,0.163 2.428,1.391 2.304,2.889c-0.156,1.887 -1.022,3.722 -1.165,5.457c-0.267,3.234 1.613,4.501 7.132,4.957c5.362,0.443 7.423,-1.452 7.606,-3.661c0.422,-5.121 -10.004,-12.573 -8.988,-24.881c0.808,-9.784 13.374,-15.737 13.673,-19.366c0.104,-1.262 -0.528,-2.268 -1.948,-2.385c-2.998,-0.247 -7.428,-0.464 -9.638,-0.647c-3.148,-0.26 -7.395,-0.759 -8.816,-0.876c-1.816,-0.15 -2.769,0.804 -2.886,2.224c-0.247,2.998 6.782,8.344 6.006,17.733c-0.905,10.967 -7.154,18.315 -16.231,17.566c-5.131,-0.424 -7.113,-3.367 -6.807,-7.076c0.736,-8.92 11.891,-17.926 12.405,-24.158c0.384,-4.654 -2.808,-7.38 -9.754,-7.953Z" style="fill:#5a5c35;fill-rule:nonzero;stroke:#5a5c35;stroke-width:1px;"/><path d="M212.344,288.155c-9.868,3.436 -14.525,10.748 -11.739,18.749c3.411,9.797 13.092,9.697 26.612,7.589c8.624,-1.243 12.238,-0.74 13.54,2.999c1.276,3.665 -1.345,6.254 -7.403,8.364c-9.649,3.359 -14.245,0.515 -16.607,-3.861c-0.871,-1.541 -1.707,-2.257 -3.499,-1.632c-4.482,1.56 -6.37,6.242 -4.834,10.654c1.874,5.382 7.842,10.254 23.241,4.892c12.191,-4.245 15.407,-12.315 12.648,-20.239c-5.65,-16.228 -31.141,-7.1 -34.761,-17.495c-1.119,-3.216 0.428,-5.515 2.971,-6.401c8.976,-3.125 14.417,10.576 19.878,8.675c2.988,-1.044 4.342,-7.965 3.068,-11.626c-0.521,-1.494 -1.281,-2.234 -2.848,-1.689c-4.634,1.603 -10.245,-2.469 -20.267,1.021Z" style="fill:#5a5c35;fill-rule:nonzero;stroke:#5a5c35;stroke-width:1px;"/><path d="M266.713,281.716c-3.512,3.318 -8.814,2.665 -11.805,-0.5c-2.67,-2.826 -2.483,-5.51 0.108,-7.957c3.856,-3.645 12.634,-4.964 16.606,-8.717c4.082,-3.862 3.39,-11.043 0.293,-14.32c-0.869,-0.92 -1.761,-1.058 -2.624,-0.243c-0.862,0.815 -0.868,2.996 -3.916,5.876c-3.627,3.427 -10.161,6.774 -13.903,10.309c-5.296,5.005 -5.981,11.527 -0.654,17.165c3.757,3.975 12.046,9.635 16.994,14.871c3.534,3.74 5.581,6.598 5.957,11.145c0.077,1.234 0.547,2.423 0.982,2.884c0.925,0.978 1.765,0.946 2.686,0.076c0.46,-0.435 2.26,-2.449 5.765,-5.761c1.322,-1.249 3.263,-2.77 4.356,-3.804c1.324,-1.251 2.105,-3.077 0.637,-4.631c-2.828,-2.992 -12.387,-1.692 -17.172,-6.755c-2.936,-3.108 -2.626,-6.124 0.828,-9.388c5.814,-5.494 14.603,-5.303 20.53,0.969c2.942,3.113 3.08,6.142 1.584,7.557c-1.094,1.033 -1.66,1.241 -2.523,2.057c-0.461,0.435 -0.592,1.104 0.059,1.793c1.574,1.665 4.958,0.75 8.239,-2.351c5.002,-4.726 5.294,-10.981 -3.299,-20.076c-8.643,-9.146 -16.143,-9.136 -20.858,-4.681c-4.893,4.624 -4.668,10.511 -8.87,14.482Z" style="fill:#5a5c35;fill-rule:nonzero;stroke:#5a5c35;stroke-width:1px;"/><path d="M306.321,212.459c0.313,-1.149 1.299,-1.456 2.445,-1.144c4.201,1.145 9.116,1.174 10.623,0.765c1.7,-0.519 2.123,-1.469 2.601,-3.223c1.145,-4.2 0.596,-8.207 -1.772,-8.852c-3.666,-0.999 -6.387,6.875 -10.435,5.772c-1.451,-0.396 -1.819,-1.153 -1.424,-2.604c0.875,-3.208 3.291,-5.75 3.624,-6.972c0.374,-1.374 -0.799,-2.187 -4.38,-3.162c-2.902,-0.792 -4.416,-0.958 -4.832,0.57c-0.854,3.131 3.785,6.283 2.807,9.873c-0.458,1.68 -1.659,2.173 -3.263,1.736c-3.819,-1.041 -6.5,-2.346 -8.791,-2.97c-1.986,-0.541 -2.957,1.817 -4.1,6.012c-0.875,3.209 -0.839,5.186 0.917,5.664c2.368,0.646 6.575,-3.049 10.547,-1.966c1.451,0.395 2.199,1.263 1.763,2.864c-1.166,4.277 -7.102,5.284 -8.017,8.643c-0.541,1.985 1.098,2.596 3.771,3.324c3.886,1.059 5.004,0.872 5.461,-0.808c0.334,-1.223 -0.139,-4.306 0.714,-7.437c0.396,-1.451 1.056,-1.764 2.278,-1.431c3.971,1.083 3.286,11.727 6.341,12.56c1.375,0.374 3.777,-2.417 4.88,-6.466c0.312,-1.145 0.173,-1.84 -0.896,-3.034c-1.126,-1.288 -4.926,-4.204 -8.974,-5.307c-1.299,-0.354 -2.243,-1.105 -1.888,-2.407Z" style="fill:#5a5c35;fill-rule:nonzero;stroke:#5a5c35;stroke-width:1px;"/></g><g id="Mushrooms"><path d="M150.167,85.661c-1.48,1.042 -2.19,2.869 -1.802,4.637c0.387,1.768 1.797,3.131 3.577,3.458c16.175,2.977 48.063,8.844 63.963,11.77c1.756,0.323 3.536,-0.423 4.537,-1.902c1,-1.479 1.031,-3.409 0.077,-4.919c-6.017,-9.493 -17.177,-23.808 -30.998,-26.351c-13.767,-2.533 -29.882,6.666 -39.354,13.307Z" style="fill:#5a5c35;"/><path d="M85.504,138.976c-0.652,1.717 -0.265,3.656 0.997,4.99c1.262,1.335 3.176,1.829 4.927,1.273c12.322,-3.916 34.919,-11.097 51.393,-16.333c3.612,-1.147 6.134,-4.413 6.332,-8.197c0.198,-3.785 -1.97,-7.295 -5.443,-8.813c-10.111,-4.443 -22.41,-7.962 -32.185,-4.856c-13.535,4.302 -21.94,21.214 -26.021,31.936Z" style="fill:#5a5c35;"/><path d="M195.018,127.322c-1.738,0.644 -2.947,2.233 -3.104,4.08c-0.157,1.846 0.766,3.617 2.37,4.545c14.163,8.194 42.537,24.608 55.963,32.376c1.525,0.882 3.413,0.855 4.912,-0.072c1.499,-0.927 2.367,-2.602 2.259,-4.362c-0.751,-11.9 -3.895,-32.617 -16.49,-39.904c-12.425,-7.187 -33.771,-1.146 -45.91,3.337Z" style="fill:#5a5c35;"/><path d="M235.462,182.269c-2.059,-0.384 -4.157,0.438 -5.406,2.118c-1.25,1.681 -1.434,3.926 -0.474,5.788c6.334,12.276 17.285,33.5 23.349,45.253c0.919,1.782 2.736,2.92 4.74,2.968c2.004,0.049 3.875,-0.999 4.88,-2.734c5.527,-9.571 12.722,-25.415 7.305,-35.914c-5.339,-10.347 -22.813,-15.288 -34.394,-17.479Z" style="fill:#5a5c35;"/><path d="M68.112,207.44c-0.636,2.167 -0.006,4.508 1.633,6.063c1.639,1.554 4.01,2.06 6.141,1.31c10.415,-3.66 26.47,-9.315 37.33,-13.14c2.23,-0.785 3.795,-2.802 4.002,-5.157c0.207,-2.355 -0.982,-4.614 -3.041,-5.776c-8.655,-4.828 -20.791,-9.956 -29.467,-6.9c-8.848,3.117 -13.927,14.685 -16.598,23.6Z" style="fill:#5a5c35;"/><path d="M179.75,90.794c0.389,-0.769 3.499,-0.753 4.269,-0.364c0.769,0.389 3.247,2.089 2.858,2.859c0,-0 -8.76,14.909 -14.004,41.452c-2.414,12.222 -4.271,26.21 -4.633,42.871c-0.29,13.319 0.81,28.577 2.993,44.269c1.872,13.457 4.707,26.259 9.043,41.173c0.645,2.505 -2.166,5.931 -4.672,6.576c-2.505,0.645 -6.256,-1.408 -6.901,-3.913c-3.493,-15.543 -5.487,-28.994 -6.672,-42.879c-1.374,-16.093 -1.667,-30.821 -0.892,-44.381c0.966,-16.893 3.126,-32.606 5.797,-44.97c5.826,-26.969 12.814,-42.693 12.814,-42.693Z" style="fill:#5a5c35;"/><path d="M219.486,149.211c0.537,-0.675 2.388,-0.028 3.063,0.509c0.675,0.537 2.197,2.389 1.66,3.064c-5.88,7.44 -10.075,14.282 -12.739,20.835c-9.402,23.119 -3.129,41.472 -12.626,67.485c-2.994,8.201 -7.366,17.113 -14.153,27.059c-1.183,1.628 -5.308,1.772 -6.936,0.59c-1.628,-1.183 -2.857,-4.658 -1.674,-6.286c9.073,-11.768 13.887,-21.507 17.009,-31.024c6.128,-18.681 4.898,-33.751 9.696,-50.61c2.737,-9.617 7.572,-20.26 16.7,-31.622Z" style="fill:#5a5c35;"/><path d="M116.033,134.02c-0.366,-0.781 0.838,-2.688 1.618,-3.055c0.781,-0.366 3.773,0.634 4.139,1.415c7.398,15.602 11.226,27.938 13.789,38.834c7.105,30.208 -0.066,44.823 6.645,60.921c3.723,8.93 10.675,16.52 28.202,29.016c1.61,1.206 1.721,5.229 0.514,6.839c-1.207,1.61 -5.663,1.457 -7.273,0.25c-18.184,-14.318 -25.428,-23.811 -29.068,-33.556c-6.2,-16.602 1.578,-31.133 -5.099,-61.95c-2.329,-10.753 -6.316,-23.321 -13.467,-38.714Z" style="fill:#5a5c35;"/><path d="M89.55,206.812c-0.963,-1.701 -0.364,-3.864 1.338,-4.827c1.701,-0.962 3.864,-0.363 4.826,1.339c0,-0 12.798,22.611 32.703,40.483c12.896,11.579 28.789,21.268 46.197,20.88c11.544,-0.382 18.388,-2.454 22.812,-5.908c4.321,-3.374 6.212,-7.991 8.224,-13.051c4.764,-11.979 9.587,-26.373 36.464,-36.981c1.818,-0.717 3.876,0.176 4.594,1.994c0.718,1.819 -0.176,3.877 -1.994,4.595c-23.967,9.459 -28.234,22.328 -32.482,33.01c-2.495,6.272 -5.09,11.834 -10.447,16.016c-5.249,4.098 -13.263,6.956 -26.968,7.406c-0.012,0 -0.024,0.001 -0.036,0.001c-19.191,0.434 -36.872,-9.92 -51.096,-22.691c-20.779,-18.657 -34.135,-42.266 -34.135,-42.266Z" style="fill:#5a5c35;"/></g></g></svg>